<svg xmlns="http://www.w3.org/2000/svg" viewBox="0 0 64 64" aria-labelledby="title"
aria-describedby="desc" role="img" xmlns:xlink="http://www.w3.org/1999/xlink">
  <title>Bitcoin Badge</title>
  <desc>A color styled icon from Orion Icon Library.</desc>
  <path data-name="layer1"
  fill="#fc6" d="M32 4.5L38 2l4.5 4.6H49l2.5 5.9 5.9 2.5v6.5L62 26l-2.5 6 2.5 6-4.6 4.5V49l-5.9 2.5-2.5 5.9h-6.5L38 62l-6-2.5-6 2.5-4.5-4.6H15l-2.5-5.9L6.6 49v-6.5L2 38l2.5-6L2 26l4.6-4.5V15l5.9-2.5L15 6.6h6.5L26 2l6 2.5z"></path>
  <path data-name="opacity" fill="#000064" opacity=".15" d="M36 56.5L30 59l-4.5-4.6H19l-2.5-5.9-5.9-2.5v-6.5L6 35l2.5-6L6 23l4.6-4.5v-5.2l-4 1.7v6.5L2 26l2.5 6L2 38l4.6 4.5V49l5.9 2.5 2.5 5.9h6.5L26 62l6-2.5 6 2.5 3.3-3.3-5.3-2.2z"></path>
  <path fill="#fff" d="M62 26l-4.6-4.5V15l-5.9-2.5L49 6.6h-6.5L38 2l-6 2.5L26 2l-3.3 3.3L28 7.5 34 5l4.5 4.6H45l2.5 5.9 5.9 2.5v6.5L58 29l-2.5 6 2.5 6-4.6 4.5v5.1l4-1.6v-6.5L62 38l-2.5-6 2.5-6z"
  data-name="opacity" opacity=".2"></path>
  <path data-name="stroke" d="M24 30h11a6.8 6.8 0 0 0 7-7c0-4.1-2.6-7-6.7-7H24v32h12.7c4.8 0 8.3-4.2 8.3-9s-4-9-10-9m-7-14v-4m6 4v-4m-6 40v-4m6 4v-4"
  fill="none" stroke="#2e4369" stroke-linecap="round" stroke-linejoin="round"
  stroke-width="2"></path>
  <path data-name="stroke" fill="none" stroke="#2e4369" stroke-linecap="round"
  stroke-linejoin="round" stroke-width="2" d="M32 4.5L38 2l4.5 4.6H49l2.5 5.9 5.9 2.5v6.5L62 26l-2.5 6 2.5 6-4.6 4.5V49l-5.9 2.5-2.5 5.9h-6.5L38 62l-6-2.5-6 2.5-4.5-4.6H15l-2.5-5.9L6.6 49v-6.5L2 38l2.5-6L2 26l4.6-4.5V15l5.9-2.5L15 6.6h6.5L26 2l6 2.5z"></path>
</svg>