<svg xmlns="http://www.w3.org/2000/svg" version="1.1" viewBox="0 0 200 200" style="overflow:hidden!important;">
    <g id="svga-group-wrapper">
        <g id="svga-group-backs-single">
            <path id="SvgjsPath6044" d="M0 0h200v200H0V0z" fill="#920000" stroke-width="none" opacity="1"></path>
            <path id="SvgjsPath6045"
                d="m156.3 131.2-16.8-.4-17 .6c-.7 0-8.8-.3-9.4-.2-9.8 1.2-14.9.6-20.8 0l-10.9-.1c-1.5 0-3.5-1.6-3.5-3.6l.1-5.6c1-5.5-.2-9.4-.2-14.7l.2-3.6c0-1.5 2.3-2.3 5.1-2.4l7.5.2c3.7-.1 9.6.8 12 .3l11-.5c3.8-.2 10.8-.8 20.5-.5 0 0 10.3 0 19.3.2l5.6-.1c1.5 0 3.2 1.2 3.2 2.7v5c-.1 3.3.1 5.9.1 10.1l.2 5.5-.4 3.4c-.1 2.5-3.8 4.1-5.8 3.7zm-43.4-33.4-16.8-.4-17 .6c-.7 0-8.8-.3-9.4-.2-9.8 1.2-14.9.6-20.8 0L38 97.7c-1.5 0-3.5-1.6-3.5-3.6v-5.6c1-5.5-.2-9.4-.2-14.7l.2-3.6c0-1.5 2.3-2.3 5.1-2.4l7.5.2c3.7-.1 9.6.8 12 .3l11-.5c3.8-.2 10.8-.8 20.5-.5 0 0 10.3 0 19.3.2l5.6-.1c1.5 0 3.2 1.2 3.2 2.7v5c-.1 3.3.1 5.9.1 10.1l.2 5.5-.4 3.4c0 2.5-3.6 4.1-5.7 3.7zm43.4-32.4-16.8-.4-17 .6c-.7 0-8.8-.3-9.4-.2-9.8 1.2-14.9.6-20.8 0l-10.9-.1c-1.5 0-3.5-1.6-3.5-3.6l.1-5.6c1-5.5-.2-9.4-.2-14.7l.2-3.6c0-1.5 2.3-2.3 5.1-2.4l7.5.2c3.7-.1 9.6.8 12 .3l11-.5c3.8-.2 10.8-.8 20.5-.5 0 0 10.3 0 19.3.2l5.6-.1c1.5 0 3.2 1.2 3.2 2.7v5c-.1 3.3.1 5.9.1 10.1l.2 5.5-.3 3.4c-.2 2.5-3.9 4.1-5.9 3.7zm-43.4-33.3-16.8-.4-17 .6c-.7 0-8.8-.3-9.4-.2-9.8 1.2-14.9.6-20.8 0L38 32c-1.5 0-3.5-1.6-3.5-3.6v-5.6c1-5.5-.2-9.4-.2-14.7l.2-3.6c0-1.5 2.3-2.3 5.1-2.4l7.5.2c3.7-.1 9.6.8 12 .3l11-.5c3.8-.2 10.8-.8 20.5-.5 0 0 10.3 0 19.3.2l5.6-.1c1.5 0 3.2 1.2 3.2 2.7v5c-.1 3.3.1 5.9.1 10.1l.2 5.5-.4 3.4c0 2.5-3.6 4-5.7 3.7zm43.4 166.2-16.8-.4-17 .6c-.7 0-8.8-.3-9.4-.2-9.8 1.2-14.9.6-20.8 0l-10.9-.1c-1.5 0-3.5-1.6-3.5-3.6l.1-5.6c1-5.5-.2-9.4-.2-14.7l.2-3.6c0-1.5 2.3-2.3 5.1-2.4l7.5.2c3.7-.1 9.6.8 12 .3l11-.5c3.8-.2 10.8-.8 20.5-.5 0 0 10.3 0 19.3.2l5.6-.1c1.5 0 3.2 1.2 3.2 2.7v5c-.1 3.3.1 5.9.1 10.1l.2 5.5-.4 3.4c-.1 2.5-3.8 4.1-5.8 3.7zM112.9 165l-16.8-.4-17 .6c-.7 0-8.8-.3-9.4-.2-9.8 1.2-14.9.6-20.8 0l-10.9-.1c-1.5 0-3.5-1.6-3.5-3.6v-5.6c1-5.5-.2-9.4-.2-14.7l.2-3.6c0-1.5 2.3-2.3 5.1-2.4l7.5.2c3.7-.1 9.6.8 12 .3l11-.4c3.8-.2 10.8-.8 20.5-.5 0 0 10.3 0 19.3.2l5.6-.1c1.5 0 3.2 1.2 3.2 2.7v5c-.1 3.3.1 5.9.1 10.1l.2 5.5-.4 3.4c0 2.4-3.6 4-5.7 3.6zM25.7 97.8c2.1.4 5.7-1.2 5.7-3.7l.4-3.4-.2-5.5c.1-4.2-.1-6.8-.1-10.1v-5c0-1.5-1.8-2.7-3.2-2.7l-5.6.1c-9-.2-19.3-.2-19.3-.2H.1v30.5l8.8-.3 16.8.3zm5.8 39.5c0-1.5-1.8-2.7-3.2-2.7l-5.6.1c-9-.2-19.3-.2-19.3-.2-1.2 0-2.2-.1-3.3-.1v30.5l8.8-.3 16.8.4c2.1.4 5.7-1.2 5.7-3.7l.4-3.4-.2-5.5c.1-4.2-.1-6.8-.1-10.1v-5zM14.9 35.9c-2.4.4-8.3-.4-12-.3L0 35.5v29.9l4.6.1c5.9.6 11 1.2 20.8 0 .7-.1 8.8.2 9.5.2l17-.6 16.8.4c2.1.4 5.7-1.2 5.7-3.7l.4-3.4-.2-5.5c.1-4.2-.1-6.8-.1-10.1v-5c0-1.5-1.8-2.7-3.2-2.7l-5.6.1c-9-.2-19.3-.2-19.3-.2-9.7-.3-16.7.3-20.5.5l-11 .4zm59.6 72.6v-5c0-1.5-1.8-2.7-3.2-2.7l-5.6.1c-9-.2-19.3-.2-19.3-.2-9.7-.3-16.7.3-20.5.5l-11 .5c-2.4.4-8.3-.4-12-.3l-2.9-.1v29.9l4.6.1c5.9.6 11 1.2 20.8 0 .7-.1 8.8.2 9.5.2l17-.6 16.8.4c2.1.4 5.7-1.2 5.7-3.7l.4-3.4-.2-5.5c0-4.2-.2-6.8-.1-10.2zm0 67.2v-5c0-1.5-1.8-2.7-3.2-2.7l-5.6.1c-9-.2-19.3-.2-19.3-.2-9.7-.3-16.7.3-20.5.5l-11 .5c-2.4.4-8.3-.4-12-.3l-2.9-.2v29.9l4.6.1c5.9.6 11 1.2 20.8 0 .7-.1 8.8.2 9.5.2l17-.6 16.8.4c2.1.4 5.7-1.2 5.7-3.7l.4-3.4-.2-5.5c0-4.2-.2-6.8-.1-10.1zM0 32l8.8-.3 16.8.4c2.1.4 5.7-1.2 5.7-3.7l.4-3.4-.2-5.5c.1-4.2-.1-6.8-.1-10.1v-5c0-1.5-1.8-2.7-3.2-2.7l-5.6.1c-9-.2-19.3-.2-19.3-.2-1.1 0-2.2-.1-3.3-.1V32zm169.4 33.3 10.9.1c5.7.6 10.4.6 19.7-.5V35.4l-9-.4c-2.4.4-7.8-.1-11.5 0l-8.4.4c-2.8 0-5.1.9-5.1 2.4l-.2 3.6c0 5.3-1 10.2.2 14.7l-.1 5.6c0 2 2 3.6 3.5 3.6zm0 65.8 10.9.1c5.7.6 10.4.5 19.7-.6v-29.5l-9.1-.4c-2.4.4-7.8-.1-11.5 0l-8.4.4c-2.8.1-5.1.9-5.1 2.4l-.2 3.6c0 5.3-1 10.2.2 14.7l-.1 5.6c.1 2 2.1 3.7 3.6 3.7zM122.1 22.7l-.1 5.6c0 2 2 3.6 3.5 3.6l10.9.1c5.9.6 11 1.2 20.8 0 .7-.1 8.8.2 9.4.2l17-.6 16.4.4V1.8h-2.6c-9-.2-19.3-.2-19.3-.2-9.7-.3-16.7.3-20.5.5l-11 .5c-2.4.4-8.3-.4-12-.3l-7.5-.3c-2.8 0-5.1.9-5.1 2.4l-.1 3.6c0 5.4 1.2 9.2.2 14.7zm0 65.8-.1 5.6c0 2 2 3.6 3.5 3.6l10.9.1c5.9.6 11 1.2 20.8 0 .7-.1 8.8.2 9.4.2l17-.6 16.4.3V67.5l-2.6.1c-9-.2-19.3-.2-19.3-.2-9.7-.3-16.7.3-20.5.5l-11 .5c-2.4.4-8.3-.4-12-.3l-7.5-.2c-2.8.1-5.1.9-5.1 2.4l-.2 3.6c.1 5.2 1.3 9.1.3 14.6zm77.9 79.8-9.1-.4c-2.4.4-7.8-.1-11.5 0l-8.4.4c-2.8.1-5.1.9-5.1 2.4l-.2 3.6c0 5.3-1 10.2.2 14.7l-.1 5.6c0 2 2 3.6 3.5 3.6l10.9.1c5.7.6 10.4.5 19.7-.6l.1-29.4zm-16.4-3.7 16.4.4v-30.3l-2.6.1c-9-.2-19.3-.2-19.3-.2-9.7-.3-16.7.3-20.5.5l-11 .5c-2.4.4-8.3-.4-12-.3l-7.5-.2c-2.8.1-5.1.9-5.1 2.4l-.2 3.6c0 5.3 1.2 9.2.2 14.7l-.1 5.6c0 2 2 3.6 3.5 3.6l10.9.1c5.9.6 11 1.2 20.8 0 .7-.1 8.8.2 9.4.2l17.1-.7z"
                fill="#830000" stroke-width="none" opacity="1"></path>
            <path id="SvgjsPath6046"
                d="M34.5 22.7v5.6c0 2 2 3.6 3.5 3.6l10.9.1c5.9.6 11 1.2 20.8 0 .7-.1 8.8.2 9.4.2l17-.6 16.8.4c1.3.2 3.3-.3 4.5-1.4-.8 0-1.7-.3-2.6-.3-1.4 0-6.2-1.1-9.3-1.6-1.3-1.2-2.9-2-4.7-1.7-1.3.2-2.3.8-3.8 1-2.1.3-4.2-.1-6.3-.5-2.2-.4-4.2-.8-6.4-.8-.1 0-.1.1 0 .1 4.1.2 7.9 1.8 11.9 1.9 1.4 0 2.7-.5 4-.5.9 0 1.6.1 2.3.3-6.4 0-22.2.9-24.5 1.6-2.7.7-12.6.7-15.9-.7-3.4-1.5-20.3 0-21.7-.2-1.5-.2-1.7-2.7-1-7 .2-1.2.2-2.6.1-4.2.5.2.9.3 1.4.3 1.4 0 3-.9 4.2-1.5 2.2-1.1 4.4-2.2 6.5-3.5.1-.1 0-.2-.1-.2-2.5 1.3-5 2.4-7.7 3.2-1.3.4-2.7 1.1-4.1.5-.1 0-.2-.1-.3-.1-.3-4.1-1.2-8.7-1.5-10.9-.1-.7-.1-1.4 0-2 3.9-1.4 8.2 1 12.1 1.5 3.2.4 6.3.1 9.5-.4.2 0 .1-.3 0-.3-2.5.2-5 .4-7.6.1-2.7-.3-5.2-1.3-7.8-1.8-2-.4-3.9-.7-5.7 0 .1-.3.2-.6.3-.8-2.4.2-4.2 1-4.2 2.3L34.3 8c0 5.4 1.2 9.2.2 14.7zm71.2 39.6c-1.9-1-8.3.3-10.8 1-2.3.6-8.8-.6-11.6-1.8 2.3-.1 4.6-.5 6.4-1.7.1-.1.1-.4-.1-.4-2.6.3-4.9 1.1-7.5 1.3-1.5-1.7-1.2-7.2-.9-9.9.3-2.9-1.3-7.3-1.6-10.5-.2-1.8-.1-3.3.1-4.4-1.1.4-1.8 1-1.8 1.8l-.2 3.6c0 5.3 1.2 9.2.2 14.7l-.1 5.6c0 2 2 3.6 3.5 3.6l10.9.1c5.9.6 11 1.2 20.8 0 .7-.1 8.8.2 9.4.2l17-.6 16.8.4c1.5.3 3.8-.5 5-1.9h-.5c-2.2 0-3.5-1-5.4-1.6-.6-.2-2.2-.1-4.1.2-1.7-1.6-4.1-2.3-6.4-2-1.9.2-3.5 1.3-5.4 1.4-2 0-3.4-.7-5.4-.3-.1 0-.1.2 0 .2 2.5 0 4.9 1 7.3.4 3.4-.8 5.6-.9 8.6.4-3.7.6-8.1 1.4-9.6 1.2-2.6-.3-4.1.3-7 .3s-19.8-.3-22-.6c-2.1-.1-3.7.2-5.6-.7zm-1.2 33c-.4-.1-1.3-.1-2.5-.2.1-.5-.1-1.1-.5-1.4-.5-.4-1.6-.7-1.9.1-.1.2 0 .5.3.5s.7-.1 1-.1c.4.1.6.5.5.9-7.1-.1-22.9.5-25.5.5-3.1 0-16.7-.3-24.6.6s-12.5-2.3-13-3.4c-.1-.2-.2-.4-.2-.8 1.4-.4 2.9-.3 4.4-.2 2.1.1 4.2-.5 6.2-.3.8.1 1.4.6 2.2.4 1-.2 2-1.2 2.7-1.8 0 0 0-.1-.1-.1-1.3 1.1-1.8 1.5-3.4 1.2-.3-.1-.5-.5-.8-.5-2.2-.3-4.4.2-6.7-.1-1.7-.2-3.3-.3-4.7.2-.2-2.1-.2-5.2-.2-7.2 0-.4 0-.9-.1-1.4 2.9.4 5.8-2.4 8.7-2 .1 0 .1-.1 0-.2-1.7-.5-3.3.1-4.8.6 0-.1-.1-.2-.2-.2-1.4-.1-2.7 0-4-.3-.4-2.6-1.1-5.6-1.1-7.7 0-1.7-.6-2.8-1.3-3.5-.3.3-.5.7-.5 1.1l-.2 3.6c0 5.3 1.2 9.2.2 14.7v5.6c0 2 2 3.6 3.5 3.6l10.9.1c5.9.6 11 1.2 20.8 0 .7-.1 8.8.2 9.4.2l17-.6 16.8.4c1.6.3 4.1-.6 5.2-2.1-1.1.3-2.7.7-3.7.7-1.5.2-7.2-.4-9.8-.9zm13.8 34.8c-4.4-.3-7.3-.3-10.8-3.2-.1-.1-.3-.2-.4-.3 1-.2 2.1-.2 3.2.1 1 .3 1.9.8 3 .9 2.8.3 5.6-.5 8-1.7.4-.2.1-.8-.3-.7-1.8.4-3.5 1-5.4 1.2-2.2.3-3.5-.5-5.4-1.1.6.1 1.1.3 1.7.5.2.1.6-.2.3-.4-2.6-2.4-7.8-.6-10.8.1-5.4-.1-12.3 1.2-13.9 1.6-2.3.6-3.5.3-6.7-1.2s-.6-4.1 0-9.4c.1-.6.1-1 .1-1.4 3 2.9 7.2 4 11.3 3.1 2-.5 3.4-1.4 5.6-1.4 1.9 0 3.6.8 5.4 1.3 2.5.8 4.3 1.2 6.9.7.1 0 .1-.2 0-.2-4.6.5-8.4-2.5-12.9-2.6-1.8 0-3.4.7-5.2 1-4.2.8-7.8-.6-11-3.1-.1-2.4-1-2.3-1.9-5.1-.5-1.4-.9-2.9-1.2-4.2l-.1 2.4c0 5.3 1.2 9.2.2 14.7l-.1 5.6c0 2 2 3.6 3.5 3.6l10.9.1c5.9.6 11 1.2 20.8 0 .7-.1 8.8.2 9.4.2l17-.6 16.8.4c1.1.2 2.6-.2 3.8-.9-2-1.1-5.4-2.9-7.8-3.5-3.5-.9-6.7.6-11.4.9-4.7.5-18.2 2.9-22.6 2.6zm-14.1-4.4c1.1-.2 2.1-.4 3.2-.5-.6.2-1.1.5-1.7.8l-1.5-.3zm12.9 38.2c-.7-.1-1.4-.1-2-.1-1.5 0-3.5 0-6.5-.6-3.1-.6-9.4-.9-13.3-1.1s-16.3 1.5-18.5 1.3-6.1-.9-11.3-1.5c-5.2-.6-17.4.9-19.6 1.3-1.4.3-4-.3-5.8-1.7 1.2.1 2.4.1 3.6 0 .3 0 .4-.4.1-.5-1.4-.5-3.1-.5-4.6-.4-.4-.5-.7-1.1-.9-1.8-.6-3-.1-4.5 0-7.8 1.7 1.6 4.2 1.6 6.8 1.5 3.5-.1 5.9 1.2 8.9 2.3 2.9 1.1 5.7-.4 8.6.6.2.1.3-.3.1-.4-1.2-.4-1.6-.4-2.9-.4-2 0-3.6.6-5.6-.4-1.1-.5-2-1.6-3.1-2.2-3.8-1.9-10.2 1.4-12.9-2.9-.2-3.5-1.1-6.1-1.9-9.1-.4-1.6-.7-3.1-.6-4.3-.7.4-1.2.9-1.2 1.6l-.2 3.6c0 5.3 1.2 9.2.2 14.7v5.6c0 2 2 3.6 3.5 3.6l10.9.1c5.9.6 11 1.2 20.8 0 .7-.1 8.8.2 9.4.2l17-.6 16.8.4c1.2.3 2.9-.1 4.2-1zm39 32.9c-2.3-.2-9.7.5-14.4 0s-11.7-1.3-16.4-1.6-17.8.7-17.8.7-2.5-.4-6.5-.9-17.1.7-18.9-2c-1.1-1.6-.9-3-.6-4.7l1.2.6c1.1.4 2.2.4 3.3.5 1.7.2 3.2.7 4.8 1.2.2.1.4-.3.2-.4-1.3-1-2.5-1.5-4.2-1.8-1.7-.3-3.8-.2-5.2-1.2.2-.9.3-1.8.4-3 .1-1.1 0-2.1-.2-3.2.8.1 1.7.3 2.5.2.3 0 .3-.4.1-.5-.8-.2-1.8-.3-2.7-.4-.5-2.6-1.4-5.2-2.2-8.4-.3-1.3-.5-2.2-.6-2.9-.7.4-1.2.9-1.2 1.6l-.2 3.6c0 5.3 1.2 9.2.2 14.7l-.1 5.6c0 2 2 3.6 3.5 3.6l10.9.1c5.9.6 11 1.2 20.8 0 .7-.1 8.8.2 9.4.2l17-.6 16.8.4c1.4.2 3.6-.4 4.8-1.6-1.1 0-3 .4-4.7.2zm42.1-166.6c-1.7-1-7.7-.2-11.1 0s-16.7-.2-18.8 0-11.1-.7-14-1.2c-2.9-.5-14.2.2-17.6.7s-10.3-.7-10.5-2.7c-.2-1.9-.2-3.6.2-7.7.1-.5.1-1 .1-1.4.9.6 2.5.5 3.3.4 1-.1 1.9-.4 2.9-.6 3.3-.7 5.1-.1 8.2.6 5.6 1.4 11.2 1.5 17 1 .1 0 .1-.2 0-.2-6.5.2-12.2-.1-18.5-2.1-4.5-1.4-8.4.5-12.9-.4-.2-2.6-.9-4.5-1.3-7.2-.3-2.6 0-5.4.6-7.3-2.2.2-3.8 1-3.8 2.3l-.1 3.6c0 5.3 1.2 9.2.2 14.7l-.1 5.6c0 2 2 3.6 3.5 3.6l10.9.1c5.9.6 11 1.2 20.8 0 .7-.1 8.8.2 9.4.2l17-.6 16.4.3v-1.3c-.6.1-1.3-.1-1.8-.4zm-10.6 32.1c-1.9-.8-9.5-.2-13.2-.5.5-.1.9-.2 1.4-.3 1.2-.3 2.7-.7 3.5-1.6.1-.2.1-.5-.2-.5-1.2.1-2.2.8-3.3 1-1.3.3-2.6.4-3.8.7-1.7-.9-2.7-2.9-3.8-5.6-.9-2.1-.3-3.4.1-5 1.8-.1 3.7.6 5.5.5 2.7 0 5.2-.6 7.8.5.1 0 .1-.1.1-.1-2.4-1.3-4.8-.8-7.4-1-2.1-.1-3.9-.9-5.8-.8.1-.6.1-1.2.1-1.9-.3-3.2-1-8.6-.3-10.5.2-.6.2-1.2 0-1.7-1.4.4-2.3 1.1-2.3 2l-.2 3.6c0 5.3-1 10.2.2 14.7l-.1 5.6c0 2 2 3.6 3.5 3.6l10.9.1c5.7.9 10.4.9 19.7-.2v-2.8c-1.7 0-2.6.9-4.1 1.1-2 .3-6.1 0-8.3-.9zm7.6 32.4c0-.8-21.2.3-24.4 0s-4.5-.3-6.5-.8-26.9.8-30.6 1.4-7.7-1.4-8.5-3.1c-.8-1.5.3-5.4.3-8.7.3.2.6.4.9.5.6.2 1.3.3 2 .2 1.8-.2 3.4-1.3 5.2-1.4.1 0 .2-.2 0-.2-1.8-.2-3.4.3-5.1.6-1.2.2-2-.4-3-.8v-.1c-.3-3.4-1.1-7.1-2-9.9-.4-1.3-.7-2.4-1.1-3.2-.2.3-.4.6-.4 1l-.2 3.6c0 5.3 1.2 9.2.2 14.7l-.1 5.6c0 2 2 3.6 3.5 3.6l10.9.1c5.9.6 11 1.2 20.8 0 .7-.1 8.8.2 9.4.2l17-.6 16.3.3V96h-.3c-1.8.4-4.3-.4-4.3-1.3zm.2 32.3c-.8-.5-2.1-.2-2.7.5-.2.2-.1.3.1.4-6.8.5-14.9 1.5-16.2 1.3-2.1-.3-6.4-2.9-6.4-6.4v-.6c1.1.2 2.2.8 3.2.9.6.1 1.2.1 1.8-.1 1-.3 2-1.4 3.3-.8.2.1.4-.1.3-.3-1.1-1.9-3.4.1-4.9.1-1.4.1-2.6-.5-3.9-.6-.4-2.2-1.8-2.7-2.8-5.7-1.2-3.5.3-5 .3-9.1 0-2.2-.5-3.4-1.1-4.2-.3.3-.6.7-.6 1.1l-.2 3.6c0 5.3-1 10.2.2 14.7l-.1 5.6c0 2 2 3.6 3.5 3.6l10.9.1c5.7.6 10.4.5 19.7-.6v-3.1c-1 0-2.4 0-3.9.1 0-.1-.2-.3-.5-.5zm-2.1.9c.5-.1.9-.4 1.4-.4.2 0 .4.1.6.2-.7.1-1.3.1-2 .2zm-9.2 34.7c-.6-.2-2.6-.3-5-.4 0-.8 0-1.5-.1-2.2 0-.1-.2-.3-.3-.3-2.5-.5-5.9 0-7.9 1.6-.2.1 0 .4.2.3 1.5-.4 2.9-1 4.4-1.2.6-.1 1.5-.2 2.1 0 .5-.1.8.1 1 .7.1.4.1.7.2 1.1-5.7-.2-13.9-.1-15.4.2-.4.1-1.3.2-2.4.2-.8-.1-1.7-.1-2.4.1h-.1c-4.5.2-10.5.4-11.7.2-1.7-.2-2.6-.9-6.1-1.7s-12 .4-13.9 0-1.5-2.8-1.5-5.9c0-2.2.4-3.3.9-5 .6.5 1.4.8 2.1.9s1.7 0 2.5-.4c.4.1.8.2 1.2.2 1.9.1 3.9-.4 5.8-.3 2.7.1 5.3.6 8 .9.3 0 .4-.5.1-.5-3.3-1-6.8-1.7-10.2-1.5-2.8.1-3.9.7-6.7-1.1-.7-.4-1.3-1-2-1.5.2-2.9-1.5-4.5-2.1-6.6-.5-1.8-1.1-3.2-.8-5-1.1.4-1.9 1-1.9 1.9l-.2 3.6c0 5.3 1.2 9.2.2 14.7l-.1 5.6c0 2 2 3.6 3.5 3.6l10.9.1c5.9.6 11 1.2 20.8 0 .7-.1 8.8.2 9.4.2l17-.6 16.4.5v-1c-.7-.1-1.3-.3-1.8-.5-1.7-.9-12-.2-14.1-.9zm-57.5-14.4c.9.9 2 1.9 3.1 2.4-.5.1-1-.1-1.5-.2-.8-.2-1.3-.6-1.9-1.1.1-.2.2-.6.3-1.1zm66.4 47c-.7-.1-1.5-.1-2.2-.3-.9-.2-1.7-.6-2.4-1.2-.3-.3-.8.2-.5.5.2.2.5.4.8.6-3.2 0-6.9 1.2-9.5 1.3-1.5.1-3.3-.5-4.8-1.5.3-.1.6-.1.8-.2.3-.1.3-.6-.1-.6-.6 0-1.2 0-1.8.1-1.3-1.1-2.2-2.4-2.6-3.8-.7-3.4-1.4-2-2.5-6.1s-.5-4.3.2-9.4c.5-3.6-.4-4.3-1.4-5.4-.7.4-1.2.9-1.2 1.6l-.2 3.6c0 5.3-1 10.2.2 14.7l-.1 5.6c0 2 2 3.6 3.5 3.6l10.9.1c5.7.6 10.4.5 19.7-.6v-1.6c-2.6-.2-5-.4-6.8-.7.2-.2.2-.3 0-.3zM25.7 97.8c1 .2 2.3-.1 3.5-.7-1.7-.2-4-.7-6.2-1 0-.1-.1-.2-.2-.2-1.1-.6-1.7-.6-3-.6-2.6 0-4.3-1.3-6.5-2-3.1-1-6.4-.2-9.6-.1-.4 0-.5.6-.1.7 3.5.6 7-.7 10.3.9.5.3 1 .6 1.6.9-3.7.1-10 .3-15.5.5v1.6l8.8-.3 16.9.3zm-.3 33.4c.7-.1 8.8.2 9.4.2l17-.6 16.8.4c1.1.2 2.7-.2 3.9-1-1.5-.4-3.3-.9-3.9-1.1-.7-.2-4.4-1-7.7-1.2-1.2-1-2.6-1.4-4.5-1.4-4 .2-7.4-1.6-11.5-1.3-.3 0-.3.4 0 .4 1.8.2 3.6.2 5.3.7 1 .3 2.3 1 3.4 1.2 1.1.2 2.2-.1 3.3 0 .5 0 1.1.1 1.6.2-1 .1-1.9.3-2.5.7-2.6 1.8-4.7.3-8.8.3s-15.2-.6-15.2-.6-11.4.3-15.8.9c-1.1.1-2.8.2-4.8.3.3-.3.5-.6.8-.8 2.5-2.3 4.5-2.4 7.8-2.2 4.9.3 9-1.6 13.9-2.1.1 0 .1-.2 0-.2-2.7.2-5.2.6-7.8 1.3-3.2.9-6.2-.1-9.5-.1-4.3 0-3.9 1.6-6.2 4.1-3.4.1-7.3 0-10.5-.2v1.8l4.6.1c6 .8 11.1 1.4 20.9.2zm.3 33.8c1.2.2 2.9-.2 4.1-1.1-1.5-.2-4.2.3-5.5-.2-1.7-.6-5.2-.6-8.3-.2-2 .3-9.6-.1-16-.7v2.1l8.8-.3 16.9.4zm22.8 30.8c-.6-.1-1.5-.1-2.6-.2-.3-1.5-.9-3.2-2.2-3.6-.5-.2-.9.1-1.4.1-1 .1-1.9 0-2.8-.2-1.3-.3-2.5-.7-3.9-.6-.2 0-.2.3 0 .3 1.9.4 3.6 1.4 5.5 1.6.5.1 1.1-.1 1.5-.1 1.5.3 2.1 1.2 2.4 2.4-5.8-.4-15.4-.8-19.5-.8-5.1 0-20.8.3-25.4.3v3.2l4.6.1c5.9.6 11 1.2 20.8 0 .7-.1 8.8.2 9.5.2l17-.6 16.8.4c1.1.2 2.7-.2 3.9-.9-2-.1-4.8-.2-6.1-.2-2.2 0-14.3-1-18.1-1.4zM25.7 32.1c1.3.2 3.2-.3 4.5-1.3-1.4-.3-3.4-.6-4.8-.9-3.4-5.6-12.7-4-18.1-5.5-.1 0-.1.1-.1.1 2.5 1 5.1.9 7.7 1.5 2.8.6 7 1.3 9.1 3.6-2.3-.1-6.6.6-9.5-.3-2.1-.6-9.5-.6-14.5-.8V32l8.8-.3 16.9.4zm-.3 33.3c.7-.1 8.8.2 9.4.2l17-.6 16.8.4c.9.2 2 0 3.1-.5-2-.1-4.3-.6-5.9-.8-2.5-.3-7.3-1.3-10.8-1.9-.4-.1-1-.1-1.8-.1 1.1-.3 2.2-.2 3.4-.3.4 0 .5-.5.1-.7-1-.4-2.1-.3-3.1-.1-.5.1-1 .3-1.5.5-.3.2-.7.4-1 .6-6.5.3-17.9 1.7-19.9 2-2.5.3-18.5-.3-21.7-1.3-1.3-.4-3.7-.5-6.3-.7 4.4-1.9 9.8-.1 14.5-.3 4.2-.2 8.4-.8 12.4-2.2.2 0 .1-.3-.1-.2-6.9 1.7-13 1.8-20.1 1-3.2-.4-5.4-.3-8 1.6-.6.1-1.3 0-1.9 0v3.4l4.6.1c5.9.5 11 1.1 20.8-.1zM155.5 29c3.6-.9 6.7-1.5 10.4-.8 2.3.5 4.3 1 6.6.6.1 0 .1-.2 0-.2-3.4.4-6.6-1.2-9.9-1.4-2.5-.1-5 .2-7.3 1.4-.1.2 0 .5.2.4zM55.2 12c.9-.5 1.8-.7 2.8-.8.1 0 0-.1 0-.1-1 0-2 .3-2.9.8-.1 0 0 .1.1.1zm5.5-.8c1-.1 1.9-.1 2.9-.3.1 0 .1-.1 0-.1-1 0-1.9.2-2.9.3-.2-.1-.2.1 0 .1zm31.1 39.5c.5 0 .5-.8 0-.8-.9 0-2 .2-2.6.9-.2.2 0 .5.3.4.8 0 1.5-.4 2.3-.5zm-6.8 5c-.2 0-.3 0-.4.1-.2.1-.2.4 0 .5.1.1.2.1.4.1.4 0 .4-.6 0-.7zm36 1.7c.1 0 .1-.1.2-.1.1-.1.1-.2 0-.3-.1 0-.1-.1-.2-.1-.6-.5-.6.9 0 .5zm8.9 1.4c.1-.2-.1-.3-.3-.2-.2.1-.3.3-.6.1-.3-.2-.6.3-.3.5.5.1 1.1.1 1.2-.4zm26-6.9c.2-.1.2-.4 0-.5-.2-.1-.3-.1-.5-.1-.6-.1-.6.8 0 .7.2 0 .3 0 .5-.1zm28.2 7.5c.2-.1.2-.3 0-.4-.4-.1-.7-.1-1.1-.1-.4 0-.4.6 0 .6s.8 0 1.1-.1zm6.8.2c.1 0 .1-.2 0-.2-.7-.2-1.4-.1-2.1-.1-.3 0-.3.5 0 .5.7-.1 1.4 0 2.1-.2zM22.2 24c2.6.9 4.7-1.3 6.9-2.2.2-.1.1-.3-.1-.3-2.3.6-4.2 2.9-6.7 2.1-.3-.1-.4.3-.1.4zm5.8-8.4c.3 0 .3-.5 0-.5-.4-.1-.4.5 0 .5zm14.1 43.8c.2 0 .2-.4 0-.4-.3 0-.3.4 0 .4zm11.8-.5c.4-.2.9-.4 1.3-.6.1-.1 0-.2-.1-.2-.5.1-.9.3-1.3.5-.1.1-.1.4.1.3zm-14.8-9.5c-7-.4-14.1-.5-21.1-1.3-5.1-.5-7.7-1.6-12.3 1.1-.1.1 0 .2.1.2 4.7-2.6 10.4-.5 15.6-.4 5.9.1 11.8.4 17.7.6.2 0 .2-.2 0-.2zm15.3-5.2c-.6-.1-1.2-.1-1.9-.2-.4 0-.4.6 0 .6.6 0 1.3 0 1.9-.2.1 0 .1-.2 0-.2zm8.1 2.9c.2 0 .2-.3 0-.3s-.2.3 0 .3zM45 51.5c.2 0 .2-.2 0-.2s-.2.2 0 .2zm-17.6 1.4c.2 0 .2-.4 0-.4s-.2.4 0 .4zm28 29.3c.2 0 .2-.2 0-.2-1.1-.4-2.2-.6-3.4-.9-.3-.1-.4.4-.1.4 1.2.3 2.3.6 3.5.7zm18.7-.1c.2-.1.1-.4-.1-.4-.9-.1-1.8.2-2.6.4-.2.1-.2.5.1.4.8 0 1.7 0 2.6-.4zm11.4 1.6c.2 0 .2-.3 0-.3s-.3 0-.5-.1c-.3 0-.3.5 0 .5.2 0 .3-.1.5-.1zm20.9 6.9c-.3 0-.3.5 0 .5s.3-.5 0-.5zm-13.1 2.3c.3 0 .3-.5 0-.5-.5 0-1.1 0-1.6.1-.2 0-.2.3 0 .3.6.2 1.1.1 1.6.1zm44.6-10.4c-.3-.1-.4.4-.1.4.5.1.9.2 1.4.2.2 0 .2-.3.1-.4-.6 0-1-.1-1.4-.2zm-8.7 11.3c-.3 0-.3.5 0 .5.7 0 1.4.1 2.1-.1.2 0 .2-.3 0-.3-.7-.2-1.4-.2-2.1-.1zm22.9-3.2c-2.3-.1-4.5.1-6.6 1.1-.3.2-.1.8.2.6 4.9-2.1 10.3.2 15.3-.4.4 0 .5-.6.1-.7-2.8-.6-6-.5-9-.6zm20.5 2.7c1.2.1 2.4.4 3.6.6.2 0 .3-.2.1-.3-1.1-.6-2.5-.8-3.8-.8-.3-.1-.3.5.1.5zm20.9-6.7c.2 0 .2-.3 0-.3-1.2-.1-2.4-.3-3.6-.3-.2 0-.2.3 0 .3 1.1.2 2.4.2 3.6.3zm-9.4-.5H183c-.1 0-.1.1 0 .1h1.1c.1.1.1-.1 0-.1zm-10 0c-5.1.5-10.1 0-15.1-.5-.3 0-.3.4-.1.5 5 1.1 10.2 1 15.2.5.3-.1.3-.5 0-.5zm-157.2 3c-.2.1 0 .4.2.3.8-.4 1.6-.5 2.5-.5.1 0 .2-.2 0-.2-.9-.4-1.9-.1-2.7.4zm6.6-10.5c-.1 0-.1.2 0 .2 1.4-.1 2.8-.2 4.2-.1.2 0 .2-.3 0-.3-1.4-.1-2.9-.1-4.2.2zm-18 36.5c-.2 0-.2.3 0 .3 1.1 0 2.3 0 3.4-.1.1 0 .1-.2 0-.2-1.1-.1-2.3 0-3.4 0zm5.4 1.2c.3.9.8 1.9 1.6 2.4.1.1.1-.1.1-.1-.6-.7-1.2-1.4-1.5-2.4 0-.2-.3-.1-.2.1zm3.8 2c-.2.1 0 .4.2.3 3.7-1.7 6.9-2.4 10.9-2.6.2 0 .2-.3 0-.3-3.6-.5-7.9.6-11.1 2.6zm99.6.4c.1 0 .1-.1 0-.2h-.5c-.1 0-.1.2 0 .2h.5zm11.6 6.8c1-.3 2-.2 3.1-.2.2 0 .3-.3.1-.3-1-.5-2.3-.3-3.3.1-.4 0-.3.5.1.4zm8.8.9c.3 0 .3-.4 0-.4s-.3.4 0 .4zm3.6.2c.2 0 .2-.3 0-.3s-.2.3 0 .3zm2.6-13.8c3.1.3 5.9 1.8 9 .9.3-.1.3-.6-.1-.6-2.9.3-5.5-.6-8.3-.8-3-.2-5.9 1.2-8.9.5-.4-.1-.6.4-.3.6 3 1.9 5.5-.9 8.6-.6zm-15.7.5c-2.7.6-5.3.8-8 1-.2 0-.2.3 0 .3 2.7 0 5.5-.4 8.1-1 .2 0 .1-.4-.1-.3zm54.4 5.2c.2 0 .2-.3 0-.3s-.2.3 0 .3zm.6-3.8c-.3 0-.5.1-.8.1-.2 0-.2.3 0 .3.3 0 .5.1.8.1.3 0 .3-.5 0-.5zm-6.8 9.7c.4 0 .4-.6 0-.6s-.4.6 0 .6zm-1.9-5.2c-.2 0-.2.3 0 .3s.2-.3 0-.3zm11.6 4.2c.2 0 .2-.3 0-.3-.2-.1-.4-.1-.6-.1-.3 0-.3.5 0 .5.2 0 .4 0 .6-.1zm4.6 0c-.2 0-.2.3 0 .3s.2-.3 0-.3zm8.2 1.7c-.4 0-.4.6 0 .6.3 0 .3-.6 0-.6zM158.6 150c.6.1 1.3.2 1.9.2.2 0 .2-.3 0-.3-.6-.2-1.2-.3-1.9-.3-.2-.1-.2.4 0 .4zm7.7 1.1c.1-.1 0-.2-.1-.2-.5.2-1 .3-1.5.2-.2 0-.2.3 0 .3.6.1 1.2 0 1.6-.3zm3.9-.1c-.3 0-.3.5 0 .5s.3-.5 0-.5zm-103.7 2.1c.2-.1.3-.2.5-.4.1-.1 0-.3-.2-.3-.2.1-.4.1-.6.2-.2.1 0 .7.3.5zm8.5-1.9c-.4 0-.4.6 0 .6s.4-.6 0-.6zm26.7 37.5c-.3 0-.3.6 0 .5 1-.1 2.2-.1 3.2-.4.2-.1.2-.3-.1-.4-1 0-2.1.2-3.1.3zm18.5 5.3c-.2.1-.2.4 0 .4.2.1.4.1.6.1.3 0 .3-.6 0-.5-.2-.1-.4-.1-.6 0zm6.1-.2c.2 0 .2-.3 0-.3-.5-.1-1-.1-1.6-.1-.3 0-.3.4 0 .4.5.1 1.1.1 1.6 0zm8.6-.2c-.3 0-.3.5 0 .5s.3-.5 0-.5zm46.7 1.6c.8-.2 1.8-.2 2.4-.7.1-.1 0-.2-.1-.2-.8-.2-1.7.2-2.5.4-.4 0-.2.6.2.5zm-161.5-5.3c-.1 0-.1.2 0 .2 3-.8 6.1-.4 8.8 1.1.2.1.4-.2.2-.3-2.8-1.7-5.9-2.1-9-1zm-15-5.2c-.4-.1-.6.6-.2.6 2.9.7 6.1.8 8.9-.5.3-.1.1-.6-.2-.5-3 .5-5.6.9-8.5.4zm25.5-7.2c-.5 0-1.1.1-1.6.2-.2.1-.1.4.1.4l1.5-.3c.2 0 .2-.3 0-.3zm13 1.4c-.2.1-.1.4.1.4 1.8-.4 3.5-.9 5.2-1.7.1-.1 0-.2-.1-.2-1.7.4-3.4 1-5.2 1.5zm11.1-1.9c-.9-.1-1.8-.1-2.7-.1-.3 0-.3.4 0 .4.9 0 1.8.1 2.7-.1.1.1.1-.1 0-.2zm4.9-.3h.3c.1 0 .1-.1 0-.1h-.3c-.1 0-.1.1 0 .1zm4.2 5.7c.3 0 .3-.4 0-.4-.3-.1-.3.4 0 .4zm-10 6.6c.1 0 .1-.1 0 0 0-.1 0 0 0 0zm-24.3-8.7c.3 0 .3-.5 0-.5s-.3.5 0 .5zm-13.3-24.6c.3 0 .3-.5 0-.5s-.3.5 0 .5zm1.8-.5c.3 0 .3-.5 0-.5s-.3.5 0 .5zm-7.6 3.4c.3 0 .3-.5 0-.5s-.3.5 0 .5zm10.4-9.7c.1 0 .1-.1.2-.1.1-.1.1-.2 0-.3-.1-.1-.1-.1-.2-.1-.6-.3-.6.8 0 .5z"
                fill="#730000" stroke-width="none" opacity="1"></path>
            <path id="SvgjsPath6047"
                d="M65.5 71.8c-3.3-1.8-5.6-.7-9.1-.7-4.1 0-8-.9-12.2-.2-.2 0-.2.4 0 .4 2-.2 3.9-.4 5.9-.2 1.9.2 3.7 1.1 5.5 1.3 3.4.3 6.2-1.4 9.7-.4.2 0 .3-.2.2-.2zm21.3-1.4c-5.7.6-11.2 1.2-16.9 1.2-.2 0-.2.2 0 .2 5.6.1 11.4-.2 16.9-1.3.1 0 .1-.1 0-.1zm12.6-1.2c-1.6-.6-3.3-.4-4.8.2-.1 0 0 .1 0 .1 1.6-.6 3.1-.5 4.8-.1 0 0 .1-.1 0-.2zm14.3 1.3c-1.4-.9-3.1-.8-4.7-.7-.2 0-.2.4 0 .4 1.2 0 2.5 0 3.6.4 1.3.5 1.8 1.4 2.2 2.6.1.2.3.2.4 0 .2-1.1-.6-2.1-1.5-2.7zm3.2 7.7c0-.2-.3-.2-.3 0v1.2c0 .1.2.1.3 0 .1-.4 0-.8 0-1.2zm-8.3 24.7c-5.5-.5-11.1-.2-16.6-.1-3.7.1-8.1-.6-11.5.9-.2.1-.1.5.2.4 4.1-1.7 9.9-.5 14.3-.5 4.6 0 9.2.2 13.7-.2.2.1.2-.5-.1-.5zm50.3 1.4c-6.2-1.2-12.6-1.3-18.9-1.6-7.2-.3-14.4-.7-21.6.1-.2 0-.2.4 0 .3 6.9-.6 13.7-.7 20.6-.2 6.6.5 13.1 1.8 19.8 1.7.2.1.3-.2.1-.3zm1.3 2.8s0 .1 0 0c.1.1.1 0 0 0zm.2 0c0-.1-.1-.1-.1 0 .1 4-.3 8.1-.2 12.1 0 .1.1.1.2 0 .5-3.9.3-8.1.1-12.1zm35.6-4c-2.5 0-5.1.3-7.6.1-1.9-.2-3.8-1-5.7-1.1-3.9-.2-7.3.5-11.2-.2-.4-.1-.5.5-.2.6 4.4 1.3 9.1 1 13.6 1.3 3.6.2 7.4-.1 11-.3.3-.1.3-.4.1-.4zm-36-33.2c-6.2.2-12.5.6-18.7.1-4.8-.4-10.2-2.5-14.9-.8-.2.1-.1.4.1.3 4.9-1.5 11.5 1.3 16.7 1.6 5.6.3 11.3-.2 16.8-.9.1 0 .2-.3 0-.3zm31.7-32.4c-3.1-2-7.1-.2-10.6-.6-3.8-.4-7.1-1-11 0-.3.1-.2.5.1.5 3.8-.6 7.1 0 10.8.5 3.4.4 7.4-1.2 10.6 0 .2 0 .3-.3.1-.4zm-76.6-.3c-11 1.4-21.9-.6-32.9 0-.3 0-.3.5 0 .5 11 .2 22.2 2.4 33-.2.1 0 .1-.3-.1-.3zm40.1-.3c-7.5.5-14.8-1.3-22.4-.2-.2 0-.1.3 0 .3 5.1-.6 9.4-.2 14.4.5 2.4.3 11.8-.5 11.9 2.8 0 .3.4.4.5.1.8-3.1-1.8-3.6-4.4-3.5zM115 5.1c-3.9-2.9-9.1 1-13.3 0-.2 0-.3.2-.1.3 2.8 1.2 5 .4 7.9-.1 3.1-.5 5.8.2 6.7 3.6.6 2.2.5 4.8.7 7 0 .3.5.3.5 0-.2-3.3.6-8.6-2.4-10.8zm-21.7-.9c-3.8 0-7.7-.1-11.5-.2-.2 0-.2.2 0 .2 3.9.3 7.7.2 11.6.1.1.1.1-.1-.1-.1zm-35.6 23c-2.4-.5-4.8-.6-7.2-.5-1.6.1-10.7 2.2-9.6-1.8.1-.2-.3-.4-.4-.2-1 1.9.5 3.5 2.4 3.8 1.5.2 3-.4 4.5-.6 3.4-.6 6.8-.6 10.3-.5.1.2.1-.1 0-.2zm2.8.4c-.4 0-.4.6 0 .6s.4-.6 0-.6zm7.3 1.4c-2-.5-4.1-.8-6.1-1-.1 0-.2.2 0 .2 2 .5 4 1 6.1 1.1.1.1.2-.2 0-.3zm63.5-.8c-1.1-.2-2.4-.1-3.2-.9-1-1-.6-2.4-.3-3.5.3-1.3.6-2.6-.1-3.9-.1-.2-.5 0-.4.2 1 2.2-1.2 4.5-.4 6.7.6 1.7 2.7 2.2 4.3 2 .3 0 .5-.5.1-.6zm13-8.5c-2.5-.4-5.1-1.4-7.6-1.6-2.8-.2-7.1 2.3-9.5.5-.2-.1-.4.2-.2.3 1.6 1.4 3.2.8 5 .3 4.5-1.3 7.9.5 12.3.7.1.1.1-.1 0-.2zM126.6 3.6c0-.2-.3-.4-.4-.1-.5 2.6-.5 5.1.3 7.6.1.2.3.1.3-.1-.4-2.5-.6-4.9-.2-7.4zm-96.9.9c-2.5-2-5.2-1.5-8.2-1.3-4.8.5-9.4.3-14.1-.2-.1 0-.2.2 0 .3 3.4.7 6.7 1.1 10.2 1.1 4.1 0 7.9-.9 11.9.6.2 0 .4-.3.2-.5zm.5 6.1c-.1-1.5.1-3.1-1-4.2-.1-.2-.4.1-.2.2 1.2 1.6.8 4.7.9 6.6.1 1.8.1 3.6.3 5.3 0 .1.2.1.2 0 .2-2.6-.1-5.3-.2-7.9zm.3 14.7c0-.2-.4-.2-.4 0 .1 1 0 1.9-.1 2.9 0 .1.2.1.2 0 .4-.9.4-1.9.3-2.9zm42.9 16.2c-.1-2.2-1-4.1-3.4-3.6-.2 0-.1.3 0 .3 3.9 1.1 2 9.4 2.2 12.2.2 2.7.7 5.1 1.7 7.5.1.1.2 0 .2-.1-2.1-5.5-.5-10.7-.7-16.3zm-4.7-3.8c-2.1.1-4.2 0-6.3-.1-.2 0-.2.3 0 .3 2.1.4 4.2.3 6.3 0 .2 0 .2-.2 0-.2zm-35.4-1.3c-3.4-.8-6.8-.3-10.3 0-4.2.3-8.4.6-12.5 1.2-.2 0-.2.3 0 .3 7.3-.2 15.5-2.6 22.7-1.1.3 0 .4-.4.1-.4zM17.7 46.7c-2.9 1.2-5.8-1.1-8.7-.3-.1 0-.1.2.1.2 2.9-.8 6 1.9 8.8.3.1-.1 0-.3-.2-.2zm6.9 22.8c-6.8.3-12.3 1.3-18.9-1.2-.2-.1-.4.3-.2.4 2.8 1.2 5.7 2 8.8 2.3 2.7.2 13.1-1.7 14.4 1.7.1.2.5.2.5-.1 0-2.7-2.2-3.2-4.6-3.1zm5.9 9.9c0-.3-.4-.3-.4 0 0 1-.1 2.1 0 3.1 0 .2.3.2.3 0 .2-1 .1-2.1.1-3.1zM53.4 104c-6.5-1.7-13.3-1.4-19.9-1.4-.2 0-.2.2 0 .2 6.7 0 13.2.4 19.8 1.5.2.1.3-.2.1-.3zm.8 24.2c-7.7.5-15.5-1.1-23.2-1.3-.2 0-.2.3 0 .3 7.3 1 16 2.8 23.3 1.3.1-.1.1-.3-.1-.3zm18.1-19.3c.2-2.2 1.1-4.8-1.7-5.3-.3-.1-.5.3-.2.5 2.3 1.5.9 8.9 1.2 11.5.3 3.4.9 6.7 1.6 10.1 0 .1.2.1.2 0-.8-5.6-1.6-11.2-1.1-16.8zm33.3 8.2c-3.7-3.4-7.5-3.4-12-1.8-.3.1-.2.6.1.4 2.2-.7 4.4-1.5 6.7-1 1.8.4 3.3 1.7 5 2.5.2.2.3 0 .2-.1zm15.3 4.2c-.5-1-1.6-1.2-2.6-1-.7.2-1.4.6-2 .9-1.4.7-2.6 1.1-4.2 1.2-.3 0-.3.5 0 .5 1.2 0 2.3-.2 3.4-.7 1.7-.7 3.3-2.2 5-.6.3.2.5 0 .4-.3zm37.4 15.8c-5.6-.4-10.5 2.8-16 1.9-5.4-.9-10.6-1.9-16.1-2.4-.3 0-.3.4-.1.5 6 .9 12.1 2.9 18.1 3.4 1.3.1 2.4-.1 3.6-.4 3.6-1.1 6.5-2.1 10.4-2.3.5-.2.5-.7.1-.7zm30.4-1.4c-6.1 0-13.7-.4-19.6 1.5-.2.1-.1.4.1.4 6.1-1.9 13.2-1 19.5-1.6.2 0 .2-.3 0-.3zm-61.1 24.5c-.8 0-1.2-.3-1.2-.9 0-.3-.1-.5-.1-.8-.1-.4-.1-.9-.1-1.3-.1-.9-.1-1.8-.1-2.7 0-.2-.3-.2-.3 0-.1 1.2-.1 2.4 0 3.6.1.7 0 1.8.5 2.4.4.6 1.5.7 1.6-.2-.1-.1-.2-.2-.3-.1zm36.7-.8c-2.9.3-5.8 1-8.6 1.5-3.6.7-6.6.3-10.2-.2-.2 0-.4.3-.1.4 2.5.4 5.1 1.1 7.6.9 3.7-.3 7.7-1.2 11.3-2.2.3-.1.3-.4 0-.4zm-94.1-22.8c-5.6-.1-10.8 1.8-16.3.2-4.9-1.4-9.8-1-14.8-.6-.1 0-.1.2 0 .2 3.2-.1 6.5-.4 9.7-.2 3.1.2 5.3 1.9 8.2 2.4 3.9.7 9.5-.6 13.3-1.6.2 0 .1-.4-.1-.4zm45.6 0c-6.7-.7-13.4-.6-20.1-1-6.1-.3-11.6.9-17.6 1-.2 0-.2.3 0 .3 5.9-.1 11.6-1.2 17.6-.8 6.7.4 13.4 1.2 20.1 1.3.5 0 .5-.7 0-.8zm1.7 10c-.1-.2-.3-.3-.4-.5-.4-.8-.3-1.4-.1-2.3.4-1.8.5-3.2-.5-4.9-.2-.3-.6 0-.5.3.6 1.1.8 2.4.4 3.6-.2.7-.8 1.4-.9 2.1-.1 1.2 1.4 1.7 1.3 3 0 .3.3.3.5.1.4-.5.4-.8.2-1.4zm.2 4.5c0-.3-.4-.3-.4 0 0 1.1-.1 2.3.1 3.4 0 .2.3.2.3 0 .1-1.1 0-2.3 0-3.4zM61 153.5c-2.8-.3-2.3-.8-4.9-2.9-.2-.2-.5-.8-.8-1.1-3.4-2.8-13 2.4-15.5-1.7-.1-.2-.4 0-.3.2 2.5 4.9 10-.1 14.1 2 2.1 1.1 1 2.4 2.7 3.5 1.2.8 3.5.4 4.8.3.1 0 .1-.3-.1-.3zm10.1 1.6c-1.6-.1-3.2.1-4.8.2-.3 0-.3.4 0 .4 1.6-.1 3.3-.1 4.8-.4.2-.1.1-.2 0-.2zm21.3-8.7c-1.6-.2-3.2-.1-4.8-.1-.3 0-.3.4 0 .4 1.6 0 3.2.1 4.8-.1.2 0 .2-.2 0-.2zm-69.7-8.8c-3.3-1.1-6.2-.6-9.6-.4-4 .2-7.8-.3-11.6-1.6-.2-.1-.4.3-.2.4 7.1 3.1 13.8 1.5 21.3 2 .2 0 .3-.3.1-.4zm4.3-.1c-.2 0-.3.4-.1.4 1.4.2 2.3 1.4 2.5 2.8 0 .1.2.1.2 0 .4-1.6-1.1-3.1-2.6-3.2zm3.2 6.8c0-.2-.3-.2-.3 0-.1 1.5-.4 3.2-.1 4.6 0 .2.4.2.4 0 .4-1.4.1-3.1 0-4.6zM71.8 173c-.1-.4-.6-.3-.6.1-.3 4.4.1 8.9.2 13.3 0 1.7.7 4.8.1 6.4-1.2 3.1-4.3 2.6-6.8 2.8-.2 0-.2.3 0 .3 4-.1 7.5 1.2 7.8-3.1.3-6.4.4-13.6-.7-19.8zm-.8-3.6c-2.5-.7-5.3 0-7.8.2-2.8.3-5.5.6-8.3 1.1-.2.1-.2.4.1.4 5.3-.1 10.7-1.4 16-1.3.2.1.2-.3 0-.4zm-24.1.2c-5.4-.9-11-1.3-16.4-.8-6.1.6-11.8 2.4-18 2.3-.2 0-.2.2 0 .3 4.8.5 9.5-.5 14.3-1.2 6.8-1 13.2-1.1 20-.2.2 0 .3-.4.1-.4zm6.6 10.5c-1.9.2-3.7.6-5.6.9-.2.1-.1.4.1.4 1.8-.3 3.7-.6 5.5-1.1.2 0 .1-.2 0-.2zm39.2 9.6c-1.6-2.5-5-3.6-7.9-2.8-.3.1-.2.5.1.5 2.9-.4 5.3.5 7.4 2.5.3.1.5 0 .4-.2zm11.5 1.7c-1.4-.1-3 .3-4.4.5-.3 0-.2.6.1.5 1.4-.2 3-.2 4.4-.7.1 0 .1-.3-.1-.3zm7.2-.3c-.2.1-.5.1-.7.2-.2.1-.1.3.1.3.2-.1.5-.2.7-.3.1-.1 0-.3-.1-.2zm17.1-4c-1.3-.9-3-1-4.5-.7-.3.1-.2.6.1.5 1.5-.3 2.9-.1 4.3.4.1.1.2-.1.1-.2zm7.3 1.6c-.7 0-1.4 0-2.2-.1-.2 0-.2.3 0 .3.7 0 1.4 0 2.2-.1.2 0 .2-.1 0-.1zm8 .4c-.6.1-1 .2-1.6.1-.3-.1-.5.4-.1.5.6.1 1.3.1 1.9-.2.1-.2 0-.4-.2-.4zm5.1-8.1c-.3 0-.3.5 0 .5s.3-.5 0-.5zm-64.4-10.8c-1.1-.8-2.4-.9-3.8-.7-.3 0-.2.4.1.4 1.2-.2 2.4.1 3.6.5.1.1.2-.1.1-.2zm48-.1c-2.8-.9-5.2-.4-8.1.1-4.4.8-8.4.6-12.8.7-3.3.1-6.4 1.4-9.8 1.3-3.3-.1-6.2-.9-9.5-.3-.2 0-.1.3 0 .3 3.2-.2 6.2.6 9.4.8 3.2.2 5.8-.9 8.9-1.1 3.6-.3 7.1.4 10.7-.1 3.7-.6 7-1.6 10.9-1 .6.2.8-.5.3-.7zm25.4-.2c-3.6-.9-7-.3-10.6 0-3.2.3-6.3-.8-9.3.4-.2.1-.1.5.1.4 3.2-.8 6.5.2 9.8.1 3.3-.2 6.6-.1 9.9 0 .4-.1.5-.7.1-.9zm1 1.6c-.2-.2-.5.1-.4.3.4.5.6 1 .8 1.5.2.5.2 1 .3 1.6.1.2.4.2.4 0 .3-1.3-.3-2.6-1.1-3.4zm10.8-.5c-.5 2.7-.8 5.4-.2 8.1 0 .2.4.2.4-.1.1-2.7 0-5.3.4-7.9 0-.2-.5-.4-.6-.1zm.5 11.7c0-.3-.4-.3-.4 0-.1 1 .3 1.9.8 2.7.7 1.2 1.2 2 1.2 3.4 0 .2.2.2.3.1 1.3-2-1.9-4.2-1.9-6.2zm20-12.2c-3.4-.3-6.8 0-10.3-.6-.3-.1-.4.4-.1.5 3.4.6 7.1 1.4 10.5.8.4 0 .2-.6-.1-.7z"
                fill="#920000" stroke-width="none" opacity="1"></path>
        </g>
        <g id="svga-group-humanwrap-move" transform="matrix(1,0,0,1,0,0)">
            <g id="svga-group-humanwrap">
                <g id="svga-group-hair-back-move" transform="matrix(1,0,0,1,0,0)">
                    <g id="svga-group-hair-back">
                        <path id="SvgjsPath8431"
                            d="M65.8 116.4c0-.2-.1-.4-.1-.5 2.2-1.2 3.6-3.9 3.1-7.2 0-.4 0-.8-.1-1.2 0-1.9-.7-3.9-2.1-5.5l.3-.6c3.3-3.2 4.8-8.4.3-12.9-1.3-1.3-3-2.2-4.8-2.7-.7-.7-1.6-1.4-2.5-1.9-.1-2.3-.8-4.6-2.3-6.5-2.5-3.2-6.8-4.9-10.7-3.6-2.1.7-3.8 2.1-4.9 3.9h-1.2v-.2c0-.8-.2-1.6-.7-2.3-.5-.7-1-1.3-1.7-1.7-.1-.1-.2-.1-.3-.2 0 0-.1-.1-.2-.1-1.8-1.1-4.2-1.2-6.1-.1-.1.1-.2.1-.3.2-1.3.8-2.4 2.1-2.8 3.6-.4 1.4-.2 3.3.6 4.6.4.6.9 1.1 1.4 1.6-.4.3-.7.7-.9 1.1-.5.9-.8 2.3-.4 3.3s1 2 2 2.6c.1 0 .1.1.2.1-.5.6-.8 1.2-1 2-.1.3-.2.7-.3 1-.8 2.6 1 5.2 3.4 5.8-.5.7-.8 1.4-.8 2.3 0 .4 0 .8.1 1.2.1 1.1.4 2 1.2 2.8.4.4 1 .7 1.5.9-.2.8-.2 1.8 0 2.5.1.4.3.8.5 1.1 0 .1-.1.2-.2.4-.1.6-.2 1.1-.2 1.7.1.6.2 1.1.2 1.7.2.8.6 1.6 1.2 2.2.3.5.7.9 1.2 1.2.4.4.9.7 1.4.8.5.3 1 .4 1.6.4.8.2 1.7.2 2.5-.1.4-.1.8-.3 1.3-.5.4.2.8.4 1.3.5 0 .6.2 1.2.5 1.8.5 1.1 1.2 2.1 2.3 2.7.9.5 1.9.7 2.9.8h.1c.4.7.9 1.3 1.6 1.8.4.4.8.6 1.3.8.5.3 1 .4 1.5.4.5.2 1.1.2 1.6 0 .8 0 1.6-.3 2.3-.7.2-.1.5-.3.7-.4.8.7 1.9 1.2 3 1.1 1.2-.1 2.5-.4 3.3-1.4.7-.8 1.3-1.7 1.6-2.7.1-.5.2-1 .2-1.5 0-1-.3-1.7-.7-2.5-.8-.9-1.8-1.6-2.9-1.9zm99.9-15.7c-.3-.4-.6-.7-.8-1 .2-.2.4-.3.7-.5.6-.5 1-1.2 1.2-1.9.5-1.2.7-2.6.3-3.8-.2-.7-.5-1.3-.9-1.8.2-.9.2-1.8 0-2.6-.2-.7-.3-1.2-.7-1.8-.6-.9-1.1-1.4-2-2 .1-.3.1-.7.1-1.1 0-2.7-1.4-5.1-3.8-6.4-2.2-1.2-4.9-1.1-7.1.1-2.7-2.8-7.1-3.5-10.7-.9-1 .7-1.8 1.6-2.3 2.6-2.1-.6-4.3-.4-6.2.8-2 1.3-3.1 3.4-3.4 5.6-2.3 0-4.1 1.4-4.9 3.6-.8 2-1.2 4.2-.6 6.3 0 .2.1.3.2.4-.9 1.1-1.6 2.3-1.9 3.6-.3.8-.5 1.7-.6 2.6-.1 1.6.3 3.1 1.1 4.4-.5.4-.9.8-1.2 1.3-1.6 1.7-2.6 4.1-2.2 6.7.4 3.2 2.9 5.7 6 6.1.3 3 2.5 5.6 5.5 6.3.1.6.2 1.2.6 1.8.5.7 1.1 1.3 1.8 1.8 1.1.7 2.5.8 3.8.5 1.8-.4 3.2-1.4 4.1-3 .1-.2.2-.3.2-.5.1.1.2.1.3.1.5.2.9.4 1.4.6.8.2 1.6.3 2.4.1 1.2-.2 2.5-.7 3.4-1.6.7-.8 1.2-1.6 1.5-2.6.2-.7.2-1.3.2-1.9.1-.4.1-.9.1-1.3 1.5 0 2.9-.7 3.8-1.9.8-1 1.1-2.2 1-3.4.1-.4.2-.8.1-1.2 0-.2 0-.3-.1-.5h.5c.9 0 1.7-.2 2.5-.6 2.2.2 4.3-.8 5.8-2.5 1.9-2.1 2.7-5 2-7.8-.3-1-.7-1.9-1.2-2.7z"
                            fill="#2a232b" stroke-width="none" opacity="1" stroke="none"></path>
                        <path id="SvgjsPath8432"
                            d="M37.6 103c-2.1-1.1-2-3-.9-4.5.3-.4-.1-1-.6-1.1-3-.1-5.3-4.5-1.7-5.9.3-.1.4-.6 0-.7-2.2-.4-3.3 2-3.1 3.9.2 2.1 1.7 3.4 3.6 3.9-1 2.2-.6 5.6 2.5 5.2.5-.1.5-.7.2-.8zm6.2 11.7c-2 .5-5.1 1.5-6-1.2-.6-2.1.8-4.1 2.2-5.3.3-.2 0-.7-.4-.6-2.5.7-3.8 4.6-2.7 6.9 1.3 2.7 5.1 2.6 7.2.9.3-.4 0-.8-.3-.7zm3.9-15.5c-1.1.1-2.3.1-3.2-.7-1-.8-1.2-2.3-.7-3.4.2-.5-.5-.9-.7-.4-.8 1.5-.7 3.3.5 4.6 1.1 1.1 3.1 1.6 4.4.6.2-.2 0-.7-.3-.7zm2.8 1.3c-.3.1-.3.5 0 .6 1.7.5 3.4 1 4.4 2.6 1 1.7.7 3.2.4 5-.1.6.5.8.9.4 2.7-3.6-1.5-9.5-5.7-8.6zm4.1 19.2c-.8.5-1.5 1.2-2.3 1.7-1.2.6-2.6.4-3.6-.4-1.8-1.6-1.3-4.3.3-5.9.3-.3-.1-.8-.5-.6-2.5 1.8-3.2 5.2-.8 7.4 2.3 2.2 6.4 1.3 7.6-1.7.2-.3-.4-.6-.7-.5zm5.3.7c-.5.5-.9 1.2-1.8 1-.8-.1-1.3-.9-1.2-1.7.1-.6-.9-.7-1-.1-.3 1.3.5 2.7 1.8 3.1 1.1.3 3-.6 2.9-1.9.1-.5-.3-.7-.7-.4zm90 1.3c-.1-.3-.6-.4-.7 0-.3 1.3-.7 2.7-1.8 3.6-1.2 1.1-3 1.2-4.5.6 0-.4-.1-.8-.3-1.1-.4-.7-1.4-.1-1.1.6.6 1.4-1.6 3.9-2.7 4.4-1.6.8-3.5.1-4.4-1.3-.3-.4-.9-.1-.7.4 1.1 2 3.6 3.1 5.7 2.1 1.3-.6 2.9-2.4 3.4-4.1 1.6.8 3.5.7 5.1-.3 1.5-1.1 2.5-3.1 2-4.9zm-2.5-7.8c-1 .7-2 1.5-3.3 1.2-1.4-.3-2.2-1.7-2.2-3.1 0-.7-.9-.6-1 0-.2 1.9.9 3.7 2.7 4.3 1.7.5 3.8-.2 4.5-1.9.1-.3-.3-.7-.7-.5zm12.6-8.5c-.3-.3-.8 0-.7.4.4 1.7.3 3.4-.9 4.7-1.2 1.2-4.1 1.5-4.2-.9 0-.7-1-.7-1 0-.1 2.8 3 4 5.2 2.7 2.1-1.3 3.7-4.9 1.6-6.9zm-6.8-9.9c-.5-.2-.7.4-.4.8.9 1.1 1.9 1.9 1.9 3.4 0 1.7-1.6 3.2-3.2 2.4-.6-.3-1.1.6-.5.9 1.9 1 4 0 4.7-2 .7-2-.5-4.7-2.5-5.5zm12.2-2.6c-.2-.1-.5 0-.5.3 0 .5.2 1 .3 1.5.2.8.1 1.8-.4 2.5-.8 1.5-2.6 2.2-4.2 1.9-.6-.1-.8.7-.2.9 2 .5 4.1-.2 5.2-1.9 1-1.3 1.5-4.3-.2-5.2zm.2 9.7c-.4-.4-1 .2-.6.6 2.6 3 1.3 6.4-1.6 8.4-.3.2-.1.7.3.7 4.4-1 4.9-6.9 1.9-9.7z"
                            fill="#0c080c" stroke-width="none" opacity="1" stroke="none"></path>
                        <path id="SvgjsPath8433"
                            d="M139.8 122.9c-.1-.3-.5-.3-.6-.1-.5 1-.4 2.2-1.2 3.1-.6.7-2.1 1-2.4-.1-.1-.5-.9-.3-.8.2.3 1.4 2 1.8 3.2 1.3 1.5-.6 2.2-2.9 1.8-4.4zm8-2.7c-.2-.2-.7-.3-.7.1-.2.9-.1 1.8-1 2.3-.9.6-2 .2-2.6-.5-.4-.4-1.1.1-.7.6.9 1.1 2.4 1.7 3.7 1 1-.5 2.1-2.3 1.3-3.5zm9.4-16.9c-1.5 1.7-3.6 2.4-5.3.5-.5-.5-1.3 0-1.1.6.2.9.1 1.8-.4 2.7-.8 1.4-2 1.7-3.8.7-.3-.4-.9-.1-.8.3.4 1.7 2.1 2.1 3.5 1.5 1.8-.8 2.5-2.3 2.7-4.1 2.1 1.3 5.1.8 6-1.9.1-.3-.5-.6-.8-.3zm4.9-1.5c-.2-.2-.4.1-.3.3 1.4 2.3 1.8 5.1.2 7.4-.3.4.4.9.7.5 1.9-2.3 2-6.2-.6-8.2zm1.1-6.9c-.1-.2-.5-.2-.6.1-.1.6-.2 1.1-.5 1.6s-.8.9-1.4 1c-.5.1-.3.9.2.8.8-.2 1.5-.7 1.9-1.3.5-.6.8-1.6.4-2.2zM59.6 122.4c-.7.6-1.3 1.4-2.3 1.6-.9.2-2-.2-2.3-1.2-.1-.4-.9-.4-.8.1.2 1.3 1.2 2.3 2.6 2.4 1.5.1 3-1.1 3.5-2.5.1-.4-.4-.6-.7-.4zm-13.8-9.6c-1 0-1.9.2-2.9.1-.4-.1-.8-.2-1.2-.4-.2-.1-.4-.3-.5-.6-.1-.4.1-.7.6-.7.5.2.9-.4.4-.7-1.4-.8-2.7 1.2-1.8 2.3 1.1 1.6 4.2 1.8 5.7.8.4-.1.2-.8-.3-.8zm2-8c-.2-.2-.6-.1-.6.2 0 .5.1.9 0 1.4-.2.5-.5.9-1 1.1-.5.2-.3 1.1.2.8.7-.3 1.2-.8 1.5-1.5.4-.6.5-1.6-.1-2zM36 91.4c-.7.3-1.2 1.1-1.2 1.9-.1.7.2 1.7 1 1.9.3.1.5-.2.4-.5-.2-.5-.5-.8-.5-1.3s.3-1 .7-1.2c.5-.4.1-1-.4-.8z"
                            fill="#4a4a4a" stroke-width="none" opacity="1" stroke="none"></path>
                    </g>
                </g>
                <g id="svga-group-humanbody-back">
                    <path id="SvgjsPath5997"
                        d="M166.5 181.1c-10.9-6.6-27.6-8.4-35-12.1-4.9-2.5-9.1-4.7-8.9-17.8s1.9-42.4 1.9-42.4H75.4s1.6 29.4 1.9 42.4-4.2 15.6-8.9 17.8c-7.4 3.5-24.1 5.4-35 12.1-10.8 6.6-10 18.9-10 18.9v19.7h153.3V200c-.1 0 .7-12.3-10.2-18.9z"
                        fill="#f4baa3" stroke-width="none" opacity="1" stroke="none"></path>
                </g>
                <g id="svga-group-chinshadow-single">
                    <path id="SvgjsPath8665"
                        d="M75.4 109c.1 2.5 1.6 29.8 1.9 42.2 6.6 6.3 8.6 13.4 10.5 15.7 2 2.4 8.9 2.4 12.2 1.5 3.3.9 10.2.9 12.2-1.5 1.9-2.3 3.9-9.4 10.4-15.6v-.1c.2-12.5 1.8-39.7 1.9-42.2H75.4z"
                        fill="#d58464" stroke-width="none" opacity="0.65" stroke="none"></path>
                </g>
                <g id="svga-group-humanbody-front">
                    <path id="SvgjsPath5998"
                        d="M78.7 156.8c.5 4.8 1.7 9.4 3.1 13.9.8 2.3 1.6 4.6 2.6 6.9.8 2 1.7 4.2 3.1 5.9.3.4 1 0 .9-.5-.5-2.2-1.6-4.3-2.4-6.4-.9-2.2-1.7-4.4-2.5-6.6-1.5-4.4-2.8-8.9-4.1-13.3-.2-.4-.8-.3-.7.1zm41.3-1c-1.3 8.2-3.9 16.1-5.4 24.2-.1.4.4.5.6.2 3.1-7.7 4.1-16.1 5.1-24.3-.1-.2-.3-.2-.3-.1zm-25.8 11.9c-.9 3.6 1.9 8.6 6.2 7.6.5-.1.4-.8 0-1-1.4-.5-2.9-.9-3.9-2.1-1.1-1.2-1.5-2.9-1.4-4.5 0-.4-.8-.5-.9 0z"
                        fill="#d58464" stroke-width="none" opacity="1" stroke="none"></path>
                    <path id="SvgjsPath5999"
                        d="M177.3 219.7c-.1-6.6-.3-13.1-.3-19.7l-.3-.3c.1 0 .1 0 .2.1s.1.2.1.1v-1.4c0-.5-.1-.9-.1-1.4-.1-.9-.3-1.9-.5-2.8-.5-1.8-1.1-3.6-2-5.3-1.7-3.4-4.4-6.2-7.7-8.1-3.6-2.2-7.6-3.8-11.6-5.1-4-1.3-8.1-2.4-12.1-3.5-4-1.2-8.1-2.2-11.8-4.2-1.9-1-3.6-2.1-4.8-3.6-1.2-1.6-1.9-3.5-2.3-5.5-.8-4-.4-8.2-.3-12.4l.7-12.6 1.5-25.2.1-1.4h-1.4c-8.2 0-16.4 0-24.6.1l-24.6.3h-.9l.1.9c.8 11.9 1.6 23.8 2.1 35.7.1 3 .3 6 .2 8.9-.1 2.9-.4 5.9-1.6 8.6-.6 1.3-1.4 2.5-2.4 3.5s-2.3 1.8-3.6 2.4c-2.6 1.3-5.4 2.2-8.3 3-5.8 1.5-11.6 2.8-17.3 4.7-2.8.9-5.7 2-8.4 3.4-1.3.7-2.7 1.4-4 2.4-1.3.9-2.4 1.9-3.5 3.1-2.1 2.3-3.6 5.2-4.5 8.1-.5 1.5-.8 3-1 4.6-.1.8-.1 1.6-.1 2.4v2.3l-.2 17.9v1.3h1.4l38.3.2c12.8.1 25.5.1 38.3 0 12.8-.1 25.6-.1 38.3-.3 12.8-.2 25.6-.5 38.3-.7h.6v-.5zm-77.2-1.6H61.8l-37 .2-.1-16.6v-2.2c0-.7 0-1.4.1-2.1.1-1.4.4-2.8.8-4.2.8-2.7 2.1-5.3 3.9-7.5.9-1.1 2-2.1 3.1-2.9 1.1-.9 2.4-1.6 3.7-2.3 2.6-1.4 5.3-2.5 8.1-3.5 5.6-2 11.4-3.4 17.1-5.1 2.9-.8 5.8-1.7 8.5-3.1 1.3-.7 2.7-1.5 3.8-2.6 1.1-1.1 2-2.4 2.6-3.9 1.2-2.9 1.5-5.9 1.6-8.9 0-3-.1-6-.2-9l-1.3-34.8 23.5.4c7.7.1 15.4.1 23.1.1-.4 7.9-.8 15.9-1.1 23.8-.2 4.2-.2 8.4-.3 12.6 0 4.2-.2 8.5.8 12.8.5 2.1 1.3 4.2 2.8 6 1.4 1.7 3.4 2.9 5.3 3.8 3.9 1.9 8 2.8 12.1 3.8s8.2 2 12.2 3.3c4 1.3 7.9 2.8 11.5 5 3.2 1.9 5.8 4.7 7.5 8 .9 1.6 1.5 3.4 1.9 5.2.2.9.4 1.8.4 2.7.1.5.1.9.1 1.4V200l-.3 19c-12.6-.2-25.1-.5-37.7-.7-12.7-.1-25.5-.1-38.2-.2z"
                        fill="#c66c49" stroke-width="none" opacity="1" stroke="none"></path>
                </g>
                <g id="svga-group-clothes-single">
                    <path id="SvgjsPath9403"
                        d="M129.8 165.2c-1.6-4-5.9-16.6-5.9-16.6-1.3 3.6-4.1 12-9 16-4.3 3.6-13 11.4-14.8 13-1.8-1.6-10.5-9.4-14.8-13-4.9-4-7.6-12.2-8.9-15.8 0 0-4.4 12.4-6 16.5 0 0 6.3 26.5 8.6 31.5 0 0 .1-.1.2-.4.3 2.6.7 5.1 1.3 7.3 2.9 10.7 8.6 17.9 8.6 17.9h21.7s10.3-13.7 11.6-23.8c.2-1.9.4-3.9.4-5.8 2.8-9.3 7-26.8 7-26.8z"
                        fill="#ffffff" stroke-width="none" opacity="1"></path>
                    <path id="SvgjsPath9404"
                        d="M96 196.2s-5.3-10.6-5.9-13.8c0 0 11.2-12.1 20.3 1.1l-5.2 12.7s3.3 17.4 3.3 23.9H92.1s1.3-16.5 3.9-23.9z"
                        fill="#222222" stroke-width="none" opacity="1"></path>
                    <path id="SvgjsPath9405"
                        d="M110.8 183.2c-2.7-3.9-5.9-6.1-9.5-6.4-6.3-.5-11.4 5-11.6 5.2-.1.1-.2.3-.1.4.5 3 5.1 12.2 5.8 13.7-2.6 7.5-3.8 23.2-3.9 23.8 0 .1 0 1.3.1 1.4s.2.2.4.2h16.4c.3 0 .5-1.2.5-1.5 0-6.3-2.9-22-3.3-23.9l5.2-12.5c.1 0 .1-.2 0-.4zm-6.1 12.8c0 .1-.1.2 0 .3 0 .2 3.1 16.5 3.3 23.3H92.6c.2-2.9 1.6-16.7 3.9-23.2.1-.1 0-.3 0-.4-.1-.1-5.1-10-5.8-13.4.9-.9 5.5-5.1 10.6-4.7 3.2.2 6.1 2.1 8.6 5.7l-5.2 12.4z"
                        fill="#3a0538" stroke-width="none" opacity="1"></path>
                    <path id="SvgjsPath9406"
                        d="M97.1 188.9c-.9 2.4 1.6 7 1.6 7 .5-4.1-.7-9.4-1.6-7zm6.4-1.6c-1.7.7-1.8 7.9-1.8 7.9 1.8-2.8 3.5-8.6 1.8-7.9zm-.8 14.9c0 1.1.2 5.5 1.4 4.1 1.2-1.4-1.2-7.8-1.2-7.8s-.2 2.6-.2 3.7zm-3.7 2.9c-.5 3.9 1.4 5.2 1.7 2.4.3-2.8-.3-9.2-.3-9.2s-.9 2.9-1.4 6.8zm-2.2-1.4c.7 1.4 1.4-3.3 1.2-5 0-.1-1.9 3.6-1.2 5z"
                        fill="#000000" stroke-width="none" opacity="1"></path>
                    <path id="SvgjsPath9407"
                        d="M71.3 157.1s-10.6 8-16.5 10.6l2.3 2.6s-22.3 5.2-26.9 6.7-6.7 3.6-6.7 3.6-1.7-1.3-4.2.2-3.6 39.4-3.6 39.4h72.6s-10.9-23.9-17.6-58.4c.1-.1.6-2.6.6-4.7zm112.9 63s-1.1-37.9-3.6-39.4-4.2-.2-4.2-.2-2.1-2.1-6.7-3.6-26.9-6.7-26.9-6.7l2.3-2.6c-5.9-2.5-16.5-10.6-16.5-10.6 0 2.1.6 4.6.6 4.6-6.7 34.5-17.6 58.4-17.6 58.4l72.6.1z"
                        fill="#591956" stroke-width="none" opacity="1"></path>
                    <path id="SvgjsPath9408"
                        d="M184.1 198c-.3-3.7-.6-7.4-1.1-11-.3-1.9-.5-3.7-1.1-5.6-.1-.2-.2-.5-.4-.8-.1-.1-.2-.3-.4-.4l-.4-.2c-.4-.2-.9-.4-1.5-.5-.9-.2-1.8-.1-2.7.3-2.4-1.9-5.1-2.9-7.8-3.6-2.9-.8-5.8-1.4-8.6-2.1l-16.7-4 2-2.1.1-.1c.1-.2 0-.4-.2-.5-1.5-.6-2.9-1.5-4.2-2.3-1.4-.9-2.7-1.8-4.1-2.7-2.7-1.9-5.3-3.8-7.9-5.8-.1-.1-.3-.2-.4-.2l-1.2.3s-3-7.8-3.7-8.7c-.6 1.3-1.4 4.2-4 9.4-1.1 1.9-3 4.5-5.5 6.5-2.7 2.1-5.2 4.3-7.7 6.5-2.2 1.9-4.3 3.9-6.4 5.8-2.1-1.9-4.2-3.9-6.4-5.8-2.5-2.2-5.1-4.4-7.7-6.4-7.4-6.9-7.1-10-9.2-15-.3-.5-.5-.5-.5-.5l-3.8 7.9c-.2-.1-1.4 0-1.6.1-2.6 2-5.2 3.9-7.8 5.8-1.3.9-2.7 1.8-4.1 2.7-1.4.9-2.8 1.7-4.2 2.3 0 0-.1 0-.1.1-.2.1-.2.4 0 .5l2 2.1-16.7 4c-2.9.7-5.7 1.4-8.6 2.1-2.8.7-5.5 1.8-7.8 3.6-.9-.4-1.8-.5-2.7-.3-.5.1-1 .3-1.5.5-.1.1-.2.1-.4.2l-.4.4c-.2.3-.3.5-.4.8-.6 1.9-.9 3.7-1.1 5.6-.5 3.7-.8 7.4-1.1 11-.5 7.4-.9 14.7-1.2 22.1 0 .6.5 1.1 1.1 1.1 12.2 0 24.9.5 37.1.3l36.2.1c-.1-.4-.8-2.1-.9-2.4l-.3-.9-.7-1.8c-.4-1.2-.9-2.4-1.3-3.6-.8-2.4-1.7-4.8-2.5-7.2-1.2-3.5-2.2-7-3.3-10.5.9-1.6 1.9-3.2 3-4.7.8-1 1.6-1.9 2.4-2.8.4-.4.9-.8 1.4-1.2l1.5-1.2c1-.8 1.9-1.7 2.8-2.7.4-.5.9-1 1.2-1.5.2-.2.4-.5.6-.6.1-.1.3-.3.6-.4.9-.5 2.1-.9 3.3-1.2.6-.1 5.7-.1 6.3 0 1.2.3 2.3.6 3.3 1.2.2.1.4.3.6.4l.6.6 1.2 1.5c.9 1 1.8 1.8 2.8 2.7l1.5 1.2c.5.4.9.8 1.4 1.2.9.8 1.7 1.8 2.4 2.8 1.1 1.5 2.1 3.1 3 4.7-1.1 3.5-2.1 7-3.3 10.5-.8 2.4-1.6 4.8-2.5 7.2-.4 1.2-.9 2.4-1.3 3.6l-.7 1.8-.3.9c-.1.3-1 1.9-1.1 2.4l36.7-.7c12.2.2 24.5.4 36.7.3.6 0 1-.5 1-1.1-.4-7.3-.8-14.6-1.3-22zM16.9 219c.2-7 .4-14 .8-20.9.2-3.7.5-7.3.9-10.9.2-1.8.4-3.7.9-5.3.1-.2.1-.4.2-.5 0-.1.1-.1 0-.1 0 0 .1-.1.2-.1.4-.2.7-.4 1.1-.4.7-.2 1.6-.1 2.1.2.2.1.5.1.6 0 1.8 2.7 3.1 5.6 4 8.6.5 1.6.8 3.2 1 4.9.2 1.7.5 3.3.6 5l1.1 10.1c.4 3.1.8 6.3 1.3 9.4H16.9zm34.8.4-19.6-.3c.2-3.2.2-6.4.1-9.6-.1-3.4-.3-6.8-.7-10.3-.2-1.7-.4-3.4-.8-5.1-.3-1.7-.8-3.4-1.4-5.1-1.2-3.1-3-5.9-5.4-8.1 1-.9 2.2-1.7 3.5-2.3 1.3-.6 2.6-1.1 4.1-1.6 2.8-.8 5.7-1.6 8.5-2.3 5.7-1.4 11.5-2.9 17.2-4.1.6.6 1.2 1.1 2 1.6-.2.2-.5.3-.7.5-1.2.8-2.5 1.6-3.7 2.3-.3.2-.5.6-.4 1 1.5 3.8 3.1 7.6 4.7 11.4 1.6 3.8 3.3 7.5 5 11.2 1.8 3.7 3.6 7.4 5.5 11 1 1.8 1.9 3.6 3 5.4 1 1.7 2 3.3 3.1 4.9l-24-.5zm33.5-6.2c.5 1.2 1 2.4 1.5 3.5.3.6.5 1.2.8 1.7l.4.9c.2.3.2.6.4.8l-12.4-.2c-1.8-3.6-3.4-7.2-5-10.8L66 197.7l-5-11.2-4.8-10.6c2.3-1.5 4.5-3.2 6.6-4.9 1.1-.9 2.3-1.9 3.4-2.9s2.2-1.9 3.3-3c-2.4 1.7-4.8 3.4-7.3 5-.9.6-1.7 1.2-2.6 1.8-.5-.8-1.1-1.5-1.7-2.2-.7-.6-1.3-1.2-2.2-1.7l-.3-.3c1.4-.6 2.7-1.3 4-2 1.4-.8 2.8-1.7 4.2-2.5 2.3-1.5 4.6-3 6.8-4.6-.1 1-.3 1.9-.5 2.9v.3c.9 5 2 10 3.3 15 1.2 5 2.6 9.9 4.1 14.7s3.2 9.7 5 14.5c.9 2.5 1.9 4.8 2.9 7.2zm11.2-36.1c-1.3.4-2.5.8-3.8 1.5-.3.2-.6.4-.9.7-.2.3-.4.5-.6.8-.4.5-.8 1-1.1 1.5-.8.9-1.6 1.8-2.5 2.6-.4.4-.9.9-1.4 1.3-.5.4-1 .9-1.4 1.4-.9 1-1.6 2-2.4 3.1-.9 1.4-1.8 2.9-2.5 4.3-.3-1-.6-2.1-.9-3.1-1.4-4.9-2.7-9.8-3.9-14.7-1.2-4.7-2.2-9.4-3.2-14.1.1-.3.1-.6.2-1 .2-1.4 1.8-4.9 2.8-7.6l1.5-4.7c0 .1.6 2.1 1.5 5.2 1.4 3.6 4.6 8.6 7.2 10.9 2.5 2.2 4.7 4.6 7.2 6.9l5.5 4.9c-.5-.1-.9 0-1.3.1zm21.3 12.8c-.7-1.1-1.5-2.1-2.4-3.1-.4-.5-.9-.9-1.4-1.4-.5-.4-.9-.8-1.4-1.3-.9-.9-1.8-1.7-2.5-2.6-.4-.5-.7-.9-1.1-1.5-.2-.3-.4-.5-.6-.8-.3-.3-.6-.5-.9-.7-1.2-.7-2.5-1.1-3.8-1.5-.4-.1-.8-.2-1.3-.3l5.5-4.9c2.5-2.2 4.6-4.4 7.1-6.6 5-4.9 6.6-9.1 7.5-11.9 1.1-3.5 1.3-4.1 1.3-4.2 0 0 1.1 3.2 2.1 6.1.7 2 2.3 6.7 2.3 7-1 4.7-2 9.4-3.2 14.1-1.2 4.9-2.5 9.8-3.9 14.7-.3 1.1-.6 2.1-.9 3.1-.7-1.3-1.5-2.8-2.4-4.2zm-6 30.2c.2-.1.3-.5.4-.8l.4-.9c.3-.6.5-1.2.8-1.7.5-1.2 1-2.3 1.5-3.5 1-2.4 2-4.7 2.8-7.1 1.8-4.8 3.5-9.6 5-14.5s2.9-9.8 4.1-14.7c1.3-4.9 2.3-9.9 3.3-15v-.3c-.2-.9-.4-1.9-.5-2.9 2.2 1.6 4.5 3.1 6.8 4.6 1.4.9 2.8 1.7 4.2 2.5 1.3.7 2.6 1.4 3.9 2l-.3.3c-.8.5-1.5 1.1-2.1 1.7-.6.6-1.2 1.4-1.7 2.2-.9-.6-1.8-1.1-2.6-1.8-2.4-1.6-4.8-3.4-7.3-5l3.3 3c1.1 1 2.2 1.9 3.4 2.9 2.1 1.7 4.2 3.4 6.6 4.9l-4.8 10.6-5 11.2L129 209c-1.6 3.6-3.2 7.3-5 10.8l-12.3.3zm36.6-.7-24.2.5c1.1-1.6 2.2-3.2 3.1-4.9 1.1-1.8 2-3.6 3-5.4 1.9-3.6 3.7-7.3 5.5-11 1.7-3.7 3.4-7.4 5.1-11.2 1.6-3.8 3.2-7.5 4.7-11.4.1-.4 0-.8-.4-1-1.2-.7-2.5-1.5-3.7-2.3-.2-.2-.5-.3-.7-.5.8-.4 1.4-1 2-1.6 5.8 1.3 11.5 2.7 17.2 4.1 2.9.7 5.7 1.5 8.5 2.3 1.4.4 2.8.9 4.1 1.6 1.3.6 2.5 1.4 3.5 2.3-2.4 2.2-4.1 5.1-5.4 8.1-.7 1.6-1.1 3.4-1.4 5.1-.3 1.7-.6 3.4-.8 5.1-.4 3.4-.6 6.8-.7 10.3-.1 3.2-.1 6.4.1 9.6-6.4 0-12.9.1-19.5.3zm19.7-.3c.5-3.1.9-6.3 1.3-9.4l1.1-10.1c.2-1.7.4-3.4.6-5 .2-1.7.6-3.3 1.1-4.9.9-3 2.2-5.9 4-8.6.2.1.4.1.6 0 .5-.3 1.4-.4 2.1-.2.4.1.8.2 1.1.4.1 0 .2.1.2.1v.1c.1.1.1.3.2.5.5 1.6.7 3.5.9 5.3.4 3.6.6 7.3.9 10.9.4 7 .7 13.9.8 20.9-4.8-.1-9.8-.1-14.9 0z"
                        fill="#3a0538" stroke-width="none" opacity="1"></path>
                </g>
                <g id="svga-group-head" transform="matrix(1,0,0,1,0,0)">
                    <g id="svga-group-ears-left-move" transform="matrix(1,0,0,1,0,0)">
                        <g id="svga-group-ears-left">
                            <path id="SvgjsPath5897"
                                d="M62 92.9c-.2-.3-3.3-4.3-5.9-6.7-2.6-2.4-3.4-2.4-4.6-.9-1.3 1.5-2.9 9.1-2.5 12.4.4 3.4 3.6 8.7 5.2 11.7 1.7 3 3.3 6.7 5.1 6.3 1.9-.4 4.4-4.6 5.7-7.7 1.3-3.1.5-10.8-3-15.1z"
                                fill="#f4baa3" stroke-width="none" opacity="1" stroke="none"></path>
                            <path id="SvgjsPath5898"
                                d="M65.8 102c.1.9.2 1.7.2 2.6s0 1.7-.2 2.6c-.1.4-.2.9-.3 1.3-.1.4-.3.7-.4 1.1-.3.7-.6 1.4-1 2.1-.7 1.3-1.5 2.6-2.6 3.6-.5.5-1.1 1-1.8 1.3-.4.1-.9.1-1.3 0-.4-.2-.8-.5-1.1-.8-1.2-1.3-1.9-2.8-2.7-4.3-.7-1.5-1.5-2.9-2.2-4.3-.7-1.5-1.5-2.9-2.1-4.4-.3-.8-.7-1.5-.9-2.3-.3-.8-.5-1.6-.6-2.5-.2-1.7 0-3.4.1-5 .2-1.6.5-3.2.8-4.8.2-.8.4-1.6.8-2.3l.3-.6c.1-.2.3-.4.4-.5.2-.3.5-.6.9-.8.3-.2.8-.3 1.2-.3.4.1.8.3 1.1.5.7.4 1.2 1 1.8 1.5 2.2 2.2 4 4.8 5.9 7.2 1.9 2.4 3.2 5.7 3.7 9.1zM55.7 86.4c-1.1-.9-2.4-1.9-3.1-1.2-.2.1-.4.4-.6.6l-.3.3c-.1.1-.1.3-.2.4-.3.6-.5 1.3-.8 2-.5 1.4-.9 2.9-1.1 4.5-.3 1.5-.5 3.1-.4 4.7.1.8.3 1.6.6 2.3.3.8.6 1.5.9 2.2.7 1.5 1.5 2.8 2.3 4.2.8 1.4 1.7 2.7 2.5 4.1.4.7.8 1.4 1.2 2s.8 1.3 1.3 1.7c.5.4.9.6 1.3.4.5-.2.9-.6 1.4-1.1.9-1 1.6-2.1 2.3-3.4.4-.6.7-1.3 1-1.9.2-.3.3-.7.4-1l.2-.5c0-.2.1-.3.1-.5.3-1.4.4-3 .3-4.6s-.4-3.2-.9-4.8c-.5-1.6-1.2-3-2.2-4.2-1.9-2.1-4-4.3-6.2-6.2z"
                                fill="#e59e82" stroke-width="none" opacity="1" stroke="none"></path>
                            <path id="SvgjsPath5899"
                                d="M51.2 99.4c-.3-2.3-.5-7.8.8-9.6 2.2-2.9 6 6.4 6.9 9.3 0 .1.1.2.1.3.2.3-.1.7-.4.6-.4-.2-.9-.6-1.3-.8-1.1-.5-1.6.5-1.3 1.8.4 1.8 1.4 2.9 2.2 4.3.1.2 0 .4-.2.3-1.6-.9-3.5-4.5-3.1-6.6.3-2 1.9-1.8 3.1-.8-.7-1.7-1.5-3.3-2.5-4.8-.6-.9-1.2-2-2.2-2.2-1.2-.2-1 .3-1.2 1.8-.8 4.8-.3 10.4 2.5 14.5.1.1 0 .2-.1.1-1.8-2.3-3-4.9-3.3-8.2z"
                                fill="#d58464" stroke-width="none" opacity="1" stroke="none"></path>
                        </g>
                    </g>
                    <g id="svga-group-ears-right-move" transform="matrix(1,0,0,1,0,0)">
                        <g id="svga-group-ears-right">
                            <path id="SvgjsPath5900"
                                d="M138 92.9c.2-.3 3.3-4.3 5.9-6.7 2.6-2.4 3.4-2.4 4.6-.9 1.3 1.5 2.9 9.1 2.5 12.4s-3.6 8.7-5.2 11.7c-1.7 3-3.3 6.7-5.1 6.3-1.9-.4-4.4-4.6-5.7-7.7s-.5-10.8 3-15.1z"
                                fill="#f4baa3" stroke-width="none" opacity="1" stroke="none"></path>
                            <path id="SvgjsPath5901"
                                d="M138 92.9c1.9-2.4 3.8-5 5.9-7.2.5-.5 1.1-1.1 1.8-1.5.3-.2.7-.4 1.1-.5.4-.1.9.1 1.2.3.3.2.6.5.9.8.1.1.2.3.4.5l.3.6c.3.7.6 1.5.8 2.3.4 1.6.7 3.2.8 4.8.2 1.6.3 3.3.1 5-.1.9-.4 1.7-.6 2.5-.3.8-.6 1.6-.9 2.3-.7 1.5-1.4 3-2.1 4.4-.8 1.5-1.5 2.9-2.2 4.3-.8 1.4-1.4 3-2.7 4.3-.3.3-.7.6-1.1.8-.4.2-.9.2-1.3 0-.8-.3-1.3-.8-1.8-1.3-1-1.1-1.8-2.3-2.6-3.6-.4-.7-.7-1.4-1-2.1-.2-.4-.3-.7-.4-1.1-.1-.4-.3-.8-.3-1.3-.1-.9-.2-1.7-.2-2.6s.1-1.7.2-2.6c.4-3.4 1.7-6.7 3.7-9.1zm.1.1c-1 1.2-1.7 2.7-2.2 4.2-.5 1.6-.8 3.2-.9 4.8-.1 1.6 0 3.2.3 4.6 0 .2.1.3.1.5l.2.5c.1.3.3.7.4 1 .3.7.6 1.3 1 1.9.7 1.2 1.5 2.4 2.3 3.4.4.5.9.9 1.4 1.1.4.2.8 0 1.3-.4s.9-1 1.3-1.7c.4-.6.8-1.3 1.2-2 .8-1.4 1.7-2.8 2.5-4.1.8-1.4 1.6-2.8 2.3-4.2.4-.7.7-1.5.9-2.2.3-.8.5-1.6.6-2.3.1-1.6-.1-3.2-.4-4.7-.3-1.5-.7-3-1.1-4.5-.2-.7-.5-1.4-.8-2-.1-.1-.1-.3-.2-.4-.1-.1-.1-.2-.3-.3-.2-.2-.4-.5-.6-.6-.7-.6-2 .4-3.1 1.2-2.2 1.5-4.3 3.7-6.2 6.2z"
                                fill="#e59e82" stroke-width="none" opacity="1" stroke="none"></path>
                            <path id="SvgjsPath5902"
                                d="M148.8 99.4c.3-2.3.5-7.8-.8-9.6-2.2-2.9-6 6.4-6.9 9.3 0 .1-.1.2-.1.3-.2.3.1.7.4.6.4-.2.9-.6 1.3-.8 1.1-.5 1.6.5 1.3 1.8-.4 1.8-1.4 2.9-2.2 4.3-.1.2 0 .4.2.3 1.6-.9 3.5-4.5 3.1-6.6-.3-2-1.9-1.8-3.1-.8.7-1.7 1.5-3.3 2.5-4.8.6-.9 1.2-2 2.2-2.2 1.2-.2 1 .3 1.2 1.8.8 4.8.3 10.4-2.5 14.5-.1.1 0 .2.1.1 1.8-2.3 3-4.9 3.3-8.2z"
                                fill="#d58464" stroke-width="none" opacity="1" stroke="none"></path>
                        </g>
                    </g>
                    <g id="svga-group-faceshape-wrap">
                        <g id="svga-group-faceshape-single">
                            <path id="SvgjsPath8654"
                                d="M143.6 82v-.3c-1.3-29.9-21.1-46.4-43.6-46.4S57.7 51.8 56.4 81.7v.3c0 2.4.3 22.6 3.7 32.7 3.6 10.8 8.9 14.9 16.2 21.4 7.4 6.5 9.5 14.2 11.5 16.6 2 2.4 8.9 2.4 12.2 1.5 3.3.9 10.2.9 12.2-1.5s4.1-10.2 11.5-16.6c7.4-6.5 12.6-10.6 16.2-21.4 3.3-10.1 3.7-30.3 3.7-32.7z"
                                fill="#f4baa3" stroke-width="none" opacity="1" stroke="none"></path>
                            <path id="SvgjsPath8655"
                                d="M112.2 152.7c2-2.4 4.1-10.2 11.5-16.6 7.4-6.5 12.6-10.6 16.2-21.4 3.3-10.1 3.7-30.3 3.7-32.7v-.3c-1.3-29.9-21.1-46.4-43.6-46.4S57.7 51.8 56.4 81.7v.3c0 2.4.3 22.6 3.7 32.7 3.6 10.8 8.9 14.9 16.2 21.4 7.4 6.5 9.5 14.2 11.5 16.6 2 2.4 8.9 2.4 12.2 1.5 3.3.9 10.2.9 12.2-1.5zm-11.5-1.1-.7-.2-.7.2c-1.8.5-4.2.6-6.3.4-1-.1-2.6-.1-4-2.2-1.1-2-2.2-4.4-3.6-6.5C82.4 138 75 132 75 132c-1.8-1.6-3.6-3.2-5.3-4.8-1.6-1.7-3.1-3.4-4.3-5.4-1.2-1.9-4.8-6-6.5-20-2.2-19-.6-26.8-.6-26.8 2.4-14.5 8.2-22.5 13.4-27.3 0 0 2.9-3.5 12.1-7.3 4.4-1.7 9-2.6 13.6-2.8 8.8-.5 13.9 1.5 13.9 1.5 9.2 2.7 17.2 7.9 22.8 15.6l2 3c.6 1 1.1 2.1 1.7 3.2.6 1.1 3 5.5 4.4 13.8.1.6.5 4 .5 4 .1 1.3.2 3.5.2 4.8-.1 7.3-.6 14.5-1.9 21.6-.7 3.8-1.6 7.5-3.1 11s-3.5 6.7-6 9.4-5.4 5.1-8.4 7.6c-1.4 1.2-3.1 2.6-4.5 4.1-1.5 1.5-2.7 3.2-3.8 4.9-1.1 1.7-2.1 3.5-3 5.3-.5.9-.9 1.7-1.3 2.5-1.3 2.4-4.4 2.2-5.3 2.2-1.6 0-3.5-.1-4.9-.5z"
                                fill="#c66c49" stroke-width="none" opacity="1" stroke="none"></path>
                        </g>
                    </g>
                    <g id="svga-group-mouth-single-move" transform="matrix(1,0,0,1,0,0)">
                        <g id="svga-group-mouth-single">
                            <path id="SvgjsPath8907"
                                d="M89.47 129.26c7.15 4.25 15.5 3.75 21.52.68.34-.17.08-.61-.24-.56-3.56.54-6.71 1.36-10.36 1.39-3.63.03-7.5-.8-10.8-1.91-.31-.1-.22.35-.12.4z"
                                fill="#d58464" stroke-width="none" opacity="1" transform="translate(0 2)" stroke="none">
                            </path>
                            <path id="SvgjsPath8908"
                                d="M108.72 128.48c-2.29.41-4.47 1.09-6.8 1.27-2.34.18-4.58-.1-6.9-.33-.24-.02-.29.35-.08.41 4.27 1.17 9.93 1.12 13.97-.81.32-.15.12-.59-.19-.54z"
                                fill="#fcc9b5" stroke-width="none" opacity="1" transform="translate(0 2)" stroke="none">
                            </path>
                            <path id="SvgjsPath8909"
                                d="M99.53 122.55c-3.63-.05-7.67.28-9.65.6-3.06.5-4.82-.23-4.95.4-.09.41 5.65 1.29 7.28 1.43 1.63.13 4.66 1.62 7.09 1.88 2.43.27 4.02-.95 5.95-1.39 1.93-.43 6.6-.78 8.04-1 1.9-.26 3.41-1.29.32-1.14-.46.02-.93.01-1.39-.03-2.66-.26-8.31-.69-12.69-.75z"
                                fill="#da7c87" stroke-width="none" opacity="1" transform="translate(0 2)" stroke="none">
                            </path>
                        </g>
                    </g>
                    <g id="svga-group-eyes-left-move" transform="matrix(1,0,0,1,0,0)">
                        <g id="svga-group-eyes-left">
                            <g id="svga-group-eyesback-left">
                                <path id="SvgjsPath5937"
                                    d="M89.2 98s-.1-2.4-1.3-4.2c-1.2-1.8-3.7-4.7-8.4-4.9S71 90.8 71 90.8s.5 3.5 2.2 4.9c1.7 1.4 4.6 3.5 9.3 3.3 4.8-.1 6.7-1 6.7-1z"
                                    fill="#ffffff" stroke-width="none" opacity="1"></path>
                            </g>
                            <g id="svga-group-eyesiriswrapper-left" transform="matrix(1,0,0,1,0,0)">
                                <g id="svga-group-eyesiriscontrol-left" transform="matrix(1,0,0,1,0,0)">
                                    <g id="svga-group-eyesiris-left">
                                        <path id="SvgjsPath6664"
                                            d="M80.1 88.4c2.8 0 5.2 2.3 5.2 5.2s-2.3 5.2-5.2 5.2-5.2-2.3-5.2-5.2 2.3-5.2 5.2-5.2z"
                                            fill="#66724e" stroke-width="none" opacity="1"></path>
                                        <path id="SvgjsPath6665"
                                            d="M80.1 90.8c1.5 0 2.8 1.2 2.8 2.8s-1.2 2.8-2.8 2.8-2.8-1.2-2.8-2.8 1.2-2.8 2.8-2.8z"
                                            fill="#000000" stroke-width="none" opacity="1"></path>
                                        <path id="SvgjsPath6666"
                                            d="m79.4 91.3-.6-.6c-.2-.2-.4-.3-.7-.3-.2 0-.5.1-.7.3-.2.2-.3.4-.3.7s.1.5.3.7l.6.6c.2.2.4.3.7.3.2 0 .5-.1.7-.3.3-.5.4-1.1 0-1.4zm2.5 4.7c.9 0 .9-1.4 0-1.4s-.8 1.4 0 1.4z"
                                            fill="#ffffff" stroke-width="none" opacity="1"></path>
                                    </g>
                                </g>
                            </g>
                            <g id="svga-group-eyesfront-left">
                                <path id="SvgjsPath5945"
                                    d="M69.4 94.6c0 6.4 4.7 11.5 10.6 11.5 5.9 0 10.6-5.2 10.6-11.5S85.9 83.1 80 83.1c-5.8 0-10.6 5.1-10.6 11.5zm1.6-3.8s3.7-2.1 8.5-1.9c4.8.2 7.3 3 8.4 4.9 1.2 1.8 1.3 4.2 1.3 4.2s-2 .9-6.7 1c-4.7.1-7.6-1.9-9.3-3.3-1.7-1.4-2.2-4.9-2.2-4.9z"
                                    fill="#f4baa3" stroke-width="none" opacity="1" stroke="none"></path>
                                <path id="SvgjsPath5946"
                                    d="M90.6 95.9c-2-3.6-4.1-6.6-8.3-7.9-4.3-1.4-8.1-.2-11.9 1.9-.2.1-.5-.2-.3-.4 6.3-5.7 18.8-2.3 20.6 6.3.1.2 0 .2-.1.1z"
                                    fill="#e59e82" stroke-width="none" opacity="1" stroke="none"></path>
                                <path id="SvgjsPath5947"
                                    d="M83.1 89.2c-4.8-2-10.6-.9-14.6 2.4-.5.4.1 1.1.6.8.5-.3 1-.6 1.6-.9 1.3 8.3 11.8 9.4 18.2 6.8.1.4.1.8.2 1.2 0 .3.5.4.6.1.7-4.5-2.5-8.7-6.6-10.4zm-4.6 8.9c-3.5-.9-6.2-3.4-6.7-7 0-.1 0-.1-.1-.1 3-1.5 6.2-2.3 9.7-1.3 4.2 1.2 6.7 4.2 7.5 8.2-3.6.2-6.9 1.2-10.4.2z"
                                    fill="#000000" stroke-width="none" opacity="1" stroke="none"></path>
                            </g>
                        </g>
                    </g>
                    <g id="svga-group-eyes-right-move" transform="matrix(1,0,0,1,0,0)">
                        <g id="svga-group-eyes-right">
                            <g id="svga-group-eyesback-right">
                                <path id="SvgjsPath5938"
                                    d="M110.8 98s.1-2.4 1.3-4.2c1.2-1.8 3.7-4.7 8.4-4.9s8.5 1.9 8.5 1.9-.5 3.5-2.2 4.9c-1.7 1.4-4.6 3.5-9.3 3.3-4.8-.1-6.7-1-6.7-1z"
                                    fill="#ffffff" stroke-width="none" opacity="1"></path>
                            </g>
                            <g id="svga-group-eyesiriswrapper-right" transform="matrix(1,0,0,1,0,0)">
                                <g id="svga-group-eyesiriscontrol-right" transform="matrix(1,0,0,1,0,0)">
                                    <g id="svga-group-eyesiris-right">
                                        <path id="SvgjsPath6667"
                                            d="M119.9 88.4c2.8 0 5.2 2.3 5.2 5.2s-2.3 5.2-5.2 5.2-5.2-2.3-5.2-5.2 2.4-5.2 5.2-5.2z"
                                            fill="#66724e" stroke-width="none" opacity="1"></path>
                                        <path id="SvgjsPath6668"
                                            d="M119.9 90.8c1.5 0 2.8 1.2 2.8 2.8s-1.2 2.8-2.8 2.8-2.8-1.2-2.8-2.8 1.3-2.8 2.8-2.8z"
                                            fill="#000000" stroke-width="none" opacity="1"></path>
                                        <path id="SvgjsPath6669"
                                            d="m119.3 91.3-.6-.6c-.2-.2-.4-.3-.7-.3-.2 0-.5.1-.7.3-.2.2-.3.4-.3.7s.1.5.3.7l.6.6c.2.2.4.3.7.3.2 0 .5-.1.7-.3.3-.5.4-1.1 0-1.4zm2.5 4.7c.9 0 .9-1.4 0-1.4s-.9 1.4 0 1.4z"
                                            fill="#ffffff" stroke-width="none" opacity="1"></path>
                                    </g>
                                </g>
                            </g>
                            <g id="svga-group-eyesfront-right">
                                <path id="SvgjsPath5948"
                                    d="M120 83.1c-5.9 0-10.6 5.2-10.6 11.5s4.7 11.5 10.6 11.5c5.9 0 10.6-5.2 10.6-11.5s-4.8-11.5-10.6-11.5zm6.8 12.6c-1.7 1.4-4.6 3.5-9.3 3.3-4.7-.1-6.7-1-6.7-1s.1-2.4 1.3-4.2c1.2-1.8 3.7-4.7 8.4-4.9 4.8-.2 8.5 1.9 8.5 1.9s-.5 3.5-2.2 4.9z"
                                    fill="#f4baa3" stroke-width="none" opacity="1" stroke="none"></path>
                                <path id="SvgjsPath5951"
                                    d="M109.4 95.9c2-3.6 4.1-6.6 8.3-7.9 4.3-1.4 8.1-.2 11.9 1.9.2.1.5-.2.3-.4-6.3-5.7-18.8-2.3-20.6 6.3-.1.2 0 .2.1.1z"
                                    fill="#e59e82" stroke-width="none" opacity="1" stroke="none"></path>
                                <path id="SvgjsPath5952"
                                    d="M131.5 91.6c-4-3.3-9.7-4.4-14.6-2.4-4 1.7-7.3 5.9-6.6 10.4.1.3.5.2.6-.1 0-.4.1-.8.2-1.2 6.5 2.6 17 1.4 18.2-6.8.5.3 1 .6 1.6.9.4.3 1-.5.6-.8zm-3.2-.5c-.5 3.6-3.3 6.1-6.7 7-3.6 1-6.9 0-10.4-.3.8-3.9 3.3-7 7.5-8.2 3.5-1 6.7-.1 9.7 1.3-.1.1-.1.2-.1.2z"
                                    fill="#000000" stroke-width="none" opacity="1" stroke="none"></path>
                            </g>
                        </g>
                    </g>
                    <g id="svga-group-facehighlight-single"></g>
                    <g id="svga-group-eyebrows-left-move" transform="matrix(1,0,0,1,0,0)">
                        <g id="svga-group-eyebrows-left-rotate"
                            transform="matrix(1,1.7453292144864463e-9,-1.7453292144864463e-9,1,1.4176200124893512e-7,-1.3606350535155798e-7)">
                            <g id="svga-group-eyebrows-left">
                                <path id="SvgjsPath6959"
                                    d="M68.1 81c.2-.2.4-.5.6-.7.1-.2.2-.4.4-.6.3-.4.6-.7 1-1 .2-.2.6-.3.8-.1.3-.3.7-.5 1.1-.7 1.2-.7 2.4-1.3 3.8-1.2 1.2-.3 2.5-.2 3.6-.2 1.7 0 3.4.2 5 .8 1 .3 3 1.3 4 2.5 1.2.6 2.1 1.6 2.3 3.1.2 1.5-1 2.5-2.3 3-1.7.6-3.2-.1-4.6-1-.8-.5-1.6-.9-2.5-1.4-1.5-.4-3-.6-4.6-.8-.6-.1-1.1-.2-1.7-.3h-.1c-.1.1-.2.2-.4.3-.4.2-.9.4-1.5.5-1.2.5-2.4 1-3.5 1.6-.2.1-.3.1-.5.1-.3.4-.7.7-1.3.5-.4-.1-.6-.4-.7-.8-.2-.1-.4-.4-.5-.7 0-1 1-2.1 1.6-2.9z"
                                    fill="#2a232b" stroke-width="none" opacity="1"></path>
                                <path id="SvgjsPath6960"
                                    d="M84 77.8c2.6 1.4 3.5 5 3.5 7.8 0 .2-.4.3-.4.1-.3-1.4-.5-2.8-1-4.1-.5-1.3-1.3-2.4-2.3-3.5-.1-.2 0-.4.2-.3zm4.1 7.9c.4-.8.8-1.5 1-2.4.1-.9.1-1.7-.1-2.6 0-.2.2-.3.3-.2 1 1.6.7 4.3-.9 5.4-.2.2-.4 0-.3-.2zm-11.8-8.6c.3.1.6.2.8.4 0-.1.1-.1.2-.1 3 .2 5.5 4.2 5.7 6.8 0 .3-.4.3-.5.1-.6-1.4-1.2-2.8-2.1-4-.6-.7-1.2-1.2-1.9-1.7 1 1.1 1.6 2.6 1.8 3.9 0 .2-.3.3-.3.1-.4-1.1-.9-2.1-1.6-3-.7-.8-1.5-1.4-2.3-2.2-.2-.1 0-.3.2-.3zm-3.4.8c2.3-.1 4.4 2.5 4.7 4.5.1.3-.3.5-.5.2-.7-.9-1-2-1.8-2.8-.7-.7-1.7-1.1-2.5-1.6-.2 0-.1-.3.1-.3zm-2.5 2c1.9-.2 3.8 1.1 4.7 2.5.1.2-.1.3-.3.2-.6-.6-1.3-1.2-2.1-1.6-.8-.4-1.6-.5-2.5-.8-.1 0 0-.3.2-.3zm-1.2 2.4c1.1-.1 2 .3 2.8 1.1.1.1 0 .2-.1.2-.8-.6-1.7-.9-2.6-.9-.2-.2-.2-.4-.1-.4z"
                                    fill="#3a353a" stroke-width="none" opacity="1"></path>
                                <path id="SvgjsPath6961"
                                    d="M91 84.6c1-1.4.6-3.9-.6-5.1-.2-.2-.5.1-.4.3.1.1.1.2.2.4-.4-.6-.8-1.1-1.3-1.6-3.4-3.2-8.6-3.5-13-2.8-4.2.7-8.1 2.9-9.3 7.2v.2c-.1 0-.2.1-.2.2-.8 1.3.4 2.8 1.8 2.9 1 .1 2-.4 2.8-.9 1.3-.7 2.6-1.3 4-1.6 3-.5 5.5.5 8.1 1.8 1.6.8 3.3 1.5 5.2 1.1 1.5-.4 2.4-1.1 2.7-2.1zm-7.4-7.3c.7 1.5 1.3 3 1.7 4.6.3 1.1.4 2.3.5 3.4-.6-.2-1.2-.4-1.7-.7.3-2.7-.8-5.6-2.5-7.7.7.1 1.4.2 2 .4zm-8.1 5.1c-.3-1.1-.8-2-1.5-2.9-.4-.5-.9-1.1-1.5-1.6.8-.3 1.6-.6 2.5-.7.9.7 1.7 1.3 2.4 2.1.8 1 1.5 2.1 2 3.2-.3-.1-.5-.1-.8-.2-1 0-2.1 0-3.1.1zm-4-4c.6.6 1.3 1 1.9 1.7.6.7 1.1 1.6 1.5 2.4-.5.1-.9.2-1.4.3-.6-.7-1.2-1.4-1.9-1.9-.6-.4-1.3-.9-2-1.2.6-.5 1.2-.9 1.9-1.3zm-4.4 4.8c.4-1.2 1.1-2.2 1.9-3 .7.4 1.5.7 2.1 1.2.7.5 1.3 1.1 1.8 1.7-.8.3-1.5.7-2.3 1.1-.9.5-3.9 1.9-3.6-.6 0-.1 0-.2-.1-.2l.2-.2zm14-6.3c.8 1.2 1.4 2.4 1.8 3.7.4 1.2.5 2.4.6 3.7-1.2-.6-2.3-1.2-3.6-1.5-.6-2.1-2-4.3-3.8-5.7 1-.1 1.9-.2 2.9-.2h2.1zm8.8 7.2c-.6 1.4-2 1.6-3.3 1.4.1-2.7-1-5.8-2.3-8.1.7.2 1.3.4 1.9.7 1.8 1 4.8 3.6 3.7 6z"
                                    fill="#1b141c" stroke-width="none" opacity="1"></path>
                            </g>
                        </g>
                    </g>
                    <g id="svga-group-eyebrows-right-move" transform="matrix(1,0,0,1,0,0)">
                        <g id="svga-group-eyebrows-right-rotate"
                            transform="matrix(1,1.7453292144864463e-9,-1.7453292144864463e-9,1,1.4176202967064455e-7,-2.127084570702209e-7)">
                            <g id="svga-group-eyebrows-right">
                                <path id="SvgjsPath6962"
                                    d="M131.9 81c-.2-.2-.4-.5-.6-.7-.1-.2-.2-.4-.4-.6-.3-.4-.6-.7-1-1-.2-.2-.6-.3-.8-.1-.4-.3-.7-.5-1.1-.7-1.2-.7-2.4-1.3-3.8-1.2-1.2-.3-2.5-.2-3.6-.2-1.7 0-3.4.2-5 .8-1 .3-3 1.3-4 2.5-1.2.6-2.1 1.6-2.3 3.1-.2 1.5 1 2.5 2.3 3 1.7.6 3.2-.1 4.6-1 .8-.5 1.6-.9 2.5-1.4 1.5-.4 3-.6 4.6-.8.6-.1 1.1-.2 1.7-.3h.1c.1.1.2.2.4.3.4.2.9.4 1.5.5 1.2.5 2.4 1 3.5 1.6.2.1.4.1.5.1.3.4.7.7 1.3.5.4-.1.6-.4.7-.8.2-.1.4-.4.5-.7 0-1-1-2.1-1.6-2.9z"
                                    fill="#2a232b" stroke-width="none" opacity="1"></path>
                                <path id="SvgjsPath6963"
                                    d="M116 77.8c-2.6 1.4-3.5 5-3.5 7.8 0 .2.4.3.4.1.3-1.4.5-2.8 1-4.1.5-1.3 1.3-2.4 2.3-3.5.1-.2 0-.4-.2-.3zm-4.1 7.9c-.4-.8-.8-1.5-1-2.4-.1-.9-.1-1.7.1-2.6 0-.2-.2-.3-.3-.2-1 1.6-.7 4.3.9 5.4.2.2.4 0 .3-.2zm11.8-8.6c-.3.1-.6.2-.8.4 0-.1-.1-.1-.2-.1-3 .2-5.5 4.2-5.7 6.8 0 .3.4.3.5.1.6-1.4 1.2-2.8 2.1-4 .6-.7 1.2-1.2 1.9-1.7-1 1.1-1.6 2.6-1.8 3.9 0 .2.3.3.3.1.4-1.1.9-2.1 1.6-3 .7-.8 1.5-1.4 2.3-2.2.2-.1 0-.3-.2-.3zm3.4.8c-2.3-.1-4.4 2.5-4.7 4.5-.1.3.3.5.5.2.7-.9 1-2 1.8-2.8.7-.7 1.7-1.1 2.5-1.6.2 0 .1-.3-.1-.3zm2.5 2c-1.9-.2-3.8 1.1-4.7 2.5-.1.2.1.3.3.2.6-.6 1.3-1.2 2.1-1.6.8-.4 1.6-.5 2.5-.8.1 0 .1-.3-.2-.3zm1.2 2.4c-1.1-.1-2 .3-2.8 1.1-.1.1 0 .2.1.2.8-.6 1.7-.9 2.6-.9.2-.2.2-.4.1-.4z"
                                    fill="#3a353a" stroke-width="none" opacity="1"></path>
                                <path id="SvgjsPath6964"
                                    d="M111.7 86.7c1.8.4 3.5-.3 5.2-1.1 2.6-1.3 5.1-2.3 8.1-1.8 1.5.2 2.7.8 4 1.6.9.5 1.8 1 2.8.9 1.4-.1 2.6-1.6 1.8-2.9l-.2-.2V83c-1.2-4.3-5.1-6.6-9.3-7.2-4.4-.7-9.5-.4-13 2.8-.5.4-.9 1-1.3 1.6.1-.1.1-.2.2-.4.1-.3-.2-.5-.4-.3-1.2 1.1-1.6 3.6-.6 5.1.3 1 1.2 1.7 2.7 2.1zm4.7-9.4c.7-.2 1.3-.3 2-.3-1.7 2.1-2.8 5-2.5 7.7-.5.2-1.1.5-1.7.7.2-1.2.2-2.3.5-3.4.4-1.7 1-3.2 1.7-4.7zm5 5.2c-.3 0-.5.1-.8.2.6-1.2 1.2-2.2 2-3.2.7-.8 1.6-1.5 2.4-2.1.8.2 1.7.4 2.5.7-.6.4-1.1 1-1.5 1.6-.7.9-1.2 1.8-1.5 2.9-1-.3-2.1-.3-3.1-.1zm9-2.8c-.7.3-1.4.8-2 1.2-.7.6-1.4 1.2-1.9 1.9-.5-.1-.9-.2-1.4-.3.4-.8.9-1.7 1.5-2.4s1.2-1.1 1.9-1.7c.7.4 1.3.8 1.9 1.3zm2.5 3.6c-.1.1-.1.1-.1.2.3 2.5-2.6 1.1-3.6.6-.7-.4-1.5-.8-2.3-1.1.6-.6 1.2-1.2 1.8-1.7.6-.5 1.4-.8 2.1-1.2.8.8 1.5 1.8 1.9 3 .2.1.2.1.2.2zm-11.8-6.4c.9 0 1.9.1 2.9.2-1.8 1.3-3.2 3.6-3.8 5.7-1.3.3-2.4.9-3.6 1.5.1-1.2.2-2.5.6-3.7.4-1.3 1.1-2.5 1.8-3.7h2.1zm-7.2 1.3c.6-.3 1.2-.6 1.9-.7-1.4 2.3-2.5 5.3-2.3 8.1-1.4.2-2.7 0-3.3-1.4-1.2-2.5 1.8-5.1 3.7-6z"
                                    fill="#1b141c" stroke-width="none" opacity="1"></path>
                            </g>
                        </g>
                    </g>
                    <g id="svga-group-beardwrap">
                        <g id="svga-group-beard-single-move" transform="matrix(1,0,0,1,0,0)">
                            <g id="svga-group-beard-single">
                                <path id="SvgjsPath9196"
                                    d="M77.4 134.8c.1-.8-.2-1.3-.6-1.7.4-1.3 0-2.7-1.2-3.3-.1-.7-.4-1.3-.9-1.7 0-1.1-.8-2-1.9-2.4-.2-1.7-1.4-3-3-2.6 0-.2-.1-.3-.1-.5.3-.8.4-1.8 0-2.6-.3-.6-.8-1.1-1.4-1.3-.2-.1-.5-.2-.8-.2 0-.3-.1-.5-.2-.8.1-.2.3-.3.4-.6.3-.7.5-1.5.3-2.2-.2-.9-.8-1.5-1.5-1.8.2-.9-.2-1.9-1.2-2 0-.4-.2-.7-.4-1 .1-.2.1-.4.1-.6 0-.5-.1-1-.4-1.3.8-.8.7-2.4-.3-3-.3-.2-.5-.3-.8-.4.9-.8 1.1-2.2.2-2.9 0-.8-.4-1.6-1.5-2.2.3-.6.3-1.3 0-1.9.6-.9.6-2.1-.5-2.8-.2-.2-.4-.4-.5-.6-.1-.2-.3-.4-.5-.5.2-.2.3-.5.3-.8-.1-1.3-.2-1.6-.9-2.5 0 0 0-.1-.1-.1 0-.1-.1-.1-.2-.2-.2-1-.8-1.9-2-1.9-.7 0-1.4.4-1.6 1.1-.2.4-.1.9.1 1.3 0 .1 0 .2-.1.3-.7 0-1.3.3-1.9 1.1-1.3 1.5-.7 2.9.3 4.1-.3.2-.5.4-.7.7-.8 1.7-.7 3.2 0 4.2 0 .1-.1.2-.2.2-.4.2-.7.6-.8 1.1-.5 2.2.4 3.4 1.5 4-.3.3-.5.8-.6 1.4 0 .5.2 1 .5 1.3-1.3.5-1.6 2.3-.7 3.2 0 .1.1.1.2.1.2.3.4.6.7.8.2.1.3.2.5.2-.2.2-.3.4-.3.7-.1.7-.1 1.3 0 1.8-.7 1.5-.4 3.3 1 4.2-.2.3-.4.7-.5 1.1-.9.6-1.2 1.6-1 2.6v.2c0 .3 0 .6.1 1 .3 1.2.9 1.8 1.7 2.2-.1.4 0 .9.3 1.2l.1.1c0 .2 0 .5.1.7-.2.4-.3 1-.2 1.4.3.9 1.1 1.3 1.9 1.3.3 0 .6-.1.8-.3.1 0 .2.1.3.1-.4.9-.3 1.8.5 2.6.1.1.1.2.2.3.7.8 1.8 1.1 2.8.8.2.1.4.2.6.4 0 .1.1.2.1.3 0 .6.1 1.2.5 1.8.8 1.2 2.1 1.4 3.3 1 .4.4.9.7 1.4.8.3.6.9 1.2 1.8 1.3.8.1 1.8-.2 2.4-.9.2.1.4.1.6.1h.1c.5.1 1.1-.1 1.4-.5.3-.4.5-.9.5-1.4v-.1c0-.4-.1-.7-.3-.9v-.1c1.3-.6 2.1-1.4 2.2-2.5z"
                                    fill="#2a232b" stroke-width="none" opacity="1"></path>
                                <path id="SvgjsPath9197"
                                    d="M60.8 123.7c-.3.2-.7.4-1 .3-.3-.1-.4-.7-.3-1 .2-.4-.3-.9-.7-.5-.7.8-.5 2 .3 2.4.7.4 2-.1 2-1.1.1-.1-.1-.2-.3-.1zm3.1-5.6c.8 0 1.1-.8 1.1-1.6 0-1.1-.6-2-1.5-2.5-.2-.1-.4.2-.2.3.4.4.7 1 .8 1.6.1.3.3 1.6-.2 1.7-.2 0-.4.4-.1.5h-.4c-.2.1-.2.3 0 .4.6.4 1.3.7 1.2 1.6-.1.7-.8 1.2-1.4 1.1-.3-.1-.5.4-.2.6 1 .4 2.1-.3 2.3-1.4.1-1.1-.6-2.1-1.4-2.3zm-2.3-11.4c-.2.1-.3.4-.1.5.6.3 1.3.7 1.3 1.4 0 .8-.7 1.4-1.5 1.6-.4.1-.2.6.1.6 1.2.1 2.2-.9 2.2-2.2.1-1.1-.8-2.2-2-1.9zm1.4-4.9c-.3-.9-1.4-1.8-2.5-1.4-.2.1-.2.4 0 .5.7.3 1.4.4 1.7 1.2.3.7 0 1.5-.4 2.1-.2.2 0 .6.3.4.9-.7 1.2-1.7.9-2.8zm-5.4 3.1c-.3-.5-.6-.9-.4-1.5.1-.4-.5-.6-.6-.2-.3.8-.2 1.9.7 2.1.2 0 .4-.2.3-.4zm15 31.7c-.1-.1-.3-.1-.3.1-.1.4-.2.9-.5 1.1-.4.4-.9.3-1.2 0-.3-.3-.8.2-.5.5.5.6 1.3.6 2 .2.7-.4 1-1.3.5-1.9zm-.1-6.5c-.7-.9-2.1-1.5-3.2-.9-.2.1-.2.5.1.5 1.1.1 2.1.1 2.7 1.2.3.5.4 1.1.4 1.7-.1.8-.3 1-1 1.1-.4 0-.4.7 0 .7h1c.1 0 .2-.1.3-.2.6-1.4.5-3-.3-4.1zm-3.9-3.5c-.2.1-.2.3-.1.4.4.2.8.4.6 1.1-.1.4.4.5.5.1.3-.8-.2-1.8-1-1.6z"
                                    fill="#3a353a" stroke-width="none" opacity="1"></path>
                                <path id="SvgjsPath9198"
                                    d="M57.1 89c-.8.5-1.2 1.6-1.1 2.6-.6 0-1.1.3-1.6.7-.6.5-1.5 1.3-1.7 2.1-.1.8.5 1.6.9 2.2.4.4.8.8 1.3.9-.5.4-.5 1.2-.3 1.9-.8.3-1.5 1-1.6 1.9 0 .4 0 .8.2 1.1-.2.1-.4.2-.5.3-.5.6-.4 1.4-.2 2 .3.8 1.1 1.7 2 1.9-.8.4-.8 1.7-.2 2.6-1.2.6-1.6 2.4-1 3.6.3.6 1 1.3 1.7 1.6-.3.4-.3.9-.2 1.4l.3.6c-.9 1.1-.9 2.8-.1 3.8.2.2.5.4.7.6-.3.3-.5.7-.4 1.1v.1s-.1 0-.1.1c-1.1.9-1.3 2.5-.6 3.6.2.4.7.7 1.1.9-.2.5-.2 1.1.1 1.6.3.5 1 .9 1.6.4.1-.1.1-.4 0-.5-.2-.2-.5-.3-.7-.5-.2-.2-.3-.5-.2-.8.5.1 1-.1 1.3-.4.2-.2.1-.6-.2-.7-.8-.2-1.6.1-2.1-.7-.5-.7-.3-1.7.2-2.4.2.2.6.2.9 0 .1-.1.2-.3.1-.4-.2-.3-.7-.7-.3-1.1 1 .3 2 .2 2.5-.8.1-.2 0-.3-.2-.3-1 0-2 .4-2.8-.4-.8-.7-.6-1.9-.2-2.8.1 0 .2 0 .2-.1.2-.1.3-.3.2-.5-.2-.3-.5-.4-.6-.7-.1-.2-.1-.5 0-.8.6.1 1.2-.1 1.7-.8.2-.3-.1-.5-.4-.5-1 .2-2.1-.2-2.6-1-.6-.9-.2-2 .7-2.6.1 0 .2.1.2.1.3 0 .6-.2.5-.5-.1-.4-.5-.7-.7-1.1-.1-.2-.2-.9.2-1 .2-.1.3-.4.2-.6h.1c.3-.1.3-.5.1-.6-.5-.3-1.1-.5-1.6-1-.5-.4-1.2-1.6-.2-1.9.2.1.3.1.6.1.2 0 .4-.3.3-.4-.3-.4-.6-.8-.6-1.3 0-.6.4-1.1 1-1.3h.1c.6.5 1.5.8 2.2.3.2-.2.2-.4 0-.6-.5-.3-1.2-.2-1.6-.7-.3-.4-.2-.9.1-1.3.1-.1.1-.2 0-.3.1-.1.1-.4 0-.5-.7-.4-2.1-1.4-2-2.3.1-.9 1.4-1.8 2.3-2 .2.3.4.6.7.8.2.1.4 0 .4-.2 0-.9-.6-1.8-.1-2.7.5-1.1 1.8-1 2 .2.1.4.6.3.7 0 .4-2-1.5-2.8-2.7-2zm19.7 44.1c.6-1.2.2-3.8-1.8-3.1-.2.1-.2.4 0 .3.9-.2 1.4.7 1.4 1.5 0 .3 0 .7-.2 1-.1.1-.1.2-.2.2s-.1.1-.1.1l-.2.2c-.1.1 0 .2.1.3.2 0 .3 0 .5-.1.7.5.6 1.7-.1 2.4-.2.2-.3.3-.6.4-.1 0-.3 0-.3.1-.1.1-.2.1-.2.2-.1 0-.1-.1-.1-.1-.2-.1-.4.1-.4.3.1.5.4.9.2 1.4-.2.6-.7.9-1.2 1h-.1c-.5.1-.9.6-1.4.8-.7.3-1.4-.1-1.8-.6l-.1-.1c.1-.1.1-.2.1-.4 0-.1-.2-.2-.3-.2-.4 0-1.1.5-1.2-.2 0-.1 0-.1-.1-.2.1-.2.1-.4.1-.6 0-.3-.3-.4-.5-.2-.8.7-1.4.9-2.3.5-.7-.3-1.9-.9-1.8-1.9 0-.1 0-.2-.1-.2.2-.1.4-.3.6-.5.2.3.4.5.7.7.5.3 1.5.4 1.9-.4.1-.2 0-.4-.2-.5-.4-.1-.8.1-1.2-.1-.4-.1-.8-.4-.9-.9-.1-.4-.6-.2-.6.1v.1c-.9.5-1.8 1-2.8.5-1-.6-1.3-1.8-1.4-3 .2-.1.4-.3.5-.6.1-.3 0-.6-.3-.6-.7.1-1.3.6-2 .2-.6-.3-1-1.1-.9-1.8 0-.4-.6-.5-.7-.1-.3 1.1.1 2.3 1 2.8.4.3 1.1.4 1.7.3-.3 1.6.5 3.2 1.8 3.8.6.3 1.4.3 2.2.1-.5 2.2 2.9 3.7 4.5 2.9.2.5.5.8 1 .8.2 0 .4 0 .6-.1 0 .1 0 .1.1.2.5.9 1.4 1.4 2.4 1.2.6-.1 1.4-.5 1.6-1.1.8 0 1.5-.6 1.8-1.4.2-.4.2-1 0-1.4.9 0 1.8-1.3 1.9-2.1.2-.6-.1-1.6-.6-1.9zm-13.6-5.6c-.5.2-1.1.6-1.7.4-.6-.2-.8-.9-.9-1.6 0-.3-.4-.4-.6-.1-1.2 2.3 2.7 4 3.4 1.6.2-.2 0-.4-.2-.3zm2.6-1.7c-.5.4-1.1.8-1.6.3-.3-.3-.8.2-.5.5.6.7 2.4.7 2.5-.6-.1-.2-.3-.3-.4-.2zm4.5 7.8c-.5-.1-1.1 0-1.5-.5-.4-.5-.3-1.2.1-1.8.2-.3-.2-.6-.5-.4-.7.7-.9 1.9-.3 2.7.5.7 1.6 1.2 2.3.4.2-.1.1-.4-.1-.4zm2.9 1c-.6.4-1.2.8-1.8.4-.3-.2-.7.4-.4.6.7.6 2.3.5 2.5-.7.1-.3-.1-.5-.3-.3zm-12.4-15.8c.1-.1.1-.2 0-.2-.1-.1-.1-.2-.2-.3-.1-.2-.2-.5-.2-.8 0-.4.3-.9.7-1.1.2-.1.1-.4 0-.4-1.2-.3-1.7 1.2-1.4 2.2.1.5.4 1.1.8 1.3.4.2.8.1 1-.4.1-.5-.5-.6-.7-.3zm-.7-10.1c.1-.1.1-.3 0-.3-.5-.2-1.1.2-1.2.8-.2.6.1 1.2.6 1.4.4.2.8-.4.4-.6-.7-.5-.2-1 .2-1.3zm-.3-6c-.3-.2-.8-.4-.9-.8-.1-.4.2-.7.6-.8.2-.1.2-.3.1-.4-.6-.6-1.5.2-1.6.8-.2.9.6 1.6 1.3 1.9.6.2 1-.5.5-.7zm.1-9.3c-.2-.7-1.1-.6-1.5-.2-.7.7-.3 1.8 0 2.5.2.4.9 0 .7-.4-.2-.4-.5-1.1-.2-1.5.2-.2.5-.3.8-.2.1.2.3 0 .2-.2zm1.9 2.3c-.3-.7-1.1-1-1.6-.4-.2.2.1.6.3.4.7-.5.8.8.8 1.2 0 .5-.2 1.1-.2 1.6 0 .2.3.3.4.2.7-.8.7-2.2.3-3zm2.2 6.9c-.1-.1-.2 0-.3.1-.1.3-.1.7-.2 1-.2.4-.4.6-.8.8-.3.2-.2.6.2.6.6 0 1.1-.4 1.4-1 .2-.5.3-1.3-.3-1.5zm1.3 10.3c-.3.2-.1.6.2.6.4-.1.8 1.2 1 1.5.2.5.3 1 .4 1.5.1.2.4.2.5 0 .2-1.1-.5-4.5-2.1-3.6zm1.2 8.4c-.2-.2-.4 0-.4.3.1.4-.1 1-.6 1.1-.3.1-.3.6 0 .6.9-.1 1.6-1.3 1-2zm2.6-1.5c-.2-.3-.7.1-.5.4.8 1.2.7 2.5.4 3.9 0 .2.2.4.4.2 1.2-1.3.7-3.3-.3-4.5zm1.7 6c-.1-.2-.3-.3-.5-.4-.2-.2-.4.2-.2.4.2.1.3.2.6.3.1 0 .2-.2.1-.3zm3.7 1.2c-.5-.8-1.5-1.6-2.6-1.3-.3.1-.2.4.1.5.8 0 1.5.6 1.8 1.2.2.3.3.7.2 1.1-.1.3-.2.5-.2.8 0 .1.1.2.3.2 1.1-.2.7-1.9.4-2.5z"
                                    fill="#1b141c" stroke-width="none" opacity="1"></path>
                                <path id="SvgjsPath9199"
                                    d="M122.6 134.8c-.1-.8.2-1.3.6-1.7-.4-1.3 0-2.7 1.2-3.3.1-.7.4-1.3.9-1.7 0-1.1.8-2 1.9-2.4.2-1.7 1.4-3 3-2.6 0-.2.1-.3.1-.5-.3-.8-.4-1.8 0-2.6.3-.6.8-1.1 1.4-1.3.2-.1.5-.2.8-.2 0-.3.1-.5.1-.8-.1-.2-.3-.3-.4-.6-.3-.7-.5-1.5-.3-2.2.2-.9.8-1.5 1.5-1.8-.2-.9.2-1.9 1.1-2 0-.4.1-.7.4-1-.1-.2-.1-.4-.1-.6 0-.5.1-1 .4-1.3-.8-.8-.6-2.4.3-3 .3-.2.6-.3.8-.4-.9-.8-1.1-2.2-.2-2.9 0-.8.4-1.6 1.4-2.2-.3-.6-.4-1.3.1-1.9-.6-.9-.6-2.1.5-2.8l.6-.6c.1-.2.3-.4.5-.5-.2-.2-.3-.5-.3-.8.1-1.3.2-1.6.9-2.5 0 0 0-.1.1-.1l.2-.2c.2-1 .8-1.9 2-1.9.7 0 1.4.4 1.6 1.1.2.4.1.9-.1 1.3 0 .1 0 .2.1.3.7 0 1.4.3 1.9 1.1 1.3 1.5.7 2.9-.4 4.1.3.2.5.4.7.7.8 1.7.7 3.2 0 4.2.1.1.1.2.1.2.4.2.7.6.8 1.1.5 2.2-.4 3.4-1.5 4 .3.3.6.8.6 1.4 0 .5-.2 1-.5 1.3 1.3.5 1.6 2.3.7 3.2l-.1.1c-.2.3-.4.6-.7.8-.2.1-.4.2-.5.2.1.2.3.4.3.7.1.7.1 1.3 0 1.8.7 1.5.4 3.3-1 4.2.2.3.4.7.5 1.1.9.6 1.2 1.6 1 2.6 0 .1 0 .1-.1.2 0 .3 0 .6-.1 1-.3 1.2-.9 1.8-1.7 2.2.1.4 0 .9-.3 1.2l-.1.1c0 .2 0 .5-.1.7.2.4.3 1 .2 1.4-.3.9-1.1 1.3-1.9 1.3-.3 0-.6-.1-.8-.3-.1 0-.2.1-.3.1.4.9.3 1.8-.5 2.6-.1.1-.1.2-.2.3-.7.8-1.8 1.1-2.8.8-.2.1-.4.2-.6.4 0 .1-.1.2-.1.3.1.6-.1 1.2-.5 1.8-.9 1.2-2.1 1.4-3.3 1-.4.4-.9.7-1.4.8-.3.6-.9 1.2-1.8 1.3-.9.1-1.8-.2-2.4-.9-.2.1-.4.1-.6.1h-.1c-.5.1-1.1-.1-1.4-.5-.3-.4-.5-.9-.5-1.4v-.1c0-.4.1-.7.3-.9v-.1c-1-.6-1.8-1.4-1.9-2.5z"
                                    fill="#2a232b" stroke-width="none" opacity="1"></path>
                                <path id="SvgjsPath9200"
                                    d="M138.8 123.9c0 1 1.3 1.5 2 1.1.9-.5 1-1.6.3-2.4-.3-.4-.9.1-.6.5.2.3.1.8-.3 1s-.7-.1-1-.3c-.2-.2-.4-.1-.4.1zm-4-3.7c.2 1.1 1.4 1.8 2.3 1.4.3-.1.1-.7-.2-.6-.6.2-1.4-.3-1.4-1.1-.1-.9.7-1.2 1.2-1.6.1-.1.1-.3 0-.4-.1-.1-.3-.1-.4 0 .2-.1.1-.5-.1-.5-.6-.1-.3-1.3-.2-1.7.1-.6.4-1.1.8-1.6.1-.2-.1-.4-.2-.3-.9.5-1.4 1.4-1.4 2.5 0 .7.3 1.6 1.1 1.6-1 .4-1.7 1.4-1.5 2.3zm1.5-11.6c0 1.2 1.1 2.3 2.2 2.2.3 0 .4-.6.1-.6-.7-.1-1.5-.8-1.4-1.6 0-.8.7-1.2 1.3-1.4.2-.1.1-.4-.1-.5-1.2-.3-2.1.8-2.1 1.9zm1.6-4c.2.2.5-.2.3-.4-.4-.6-.6-1.4-.4-2.1.3-.8 1-.9 1.7-1.2.2-.1.2-.4 0-.5-1-.4-2.1.5-2.4 1.4-.4 1.1-.1 2.1.8 2.8zm4.8.7c.9-.2 1-1.3.7-2.1-.1-.3-.7-.1-.6.2.2.6-.1 1-.4 1.5-.1.2.1.4.3.4zm-14.8 33.3c.6.5 1.5.4 2-.2.3-.3-.2-.8-.5-.5-.3.3-.9.4-1.2 0-.3-.3-.4-.8-.5-1.1 0-.2-.2-.2-.3-.1-.5.5-.2 1.4.5 1.9zm-.6-4.5c.1.1.2.2.3.2h1c.4 0 .4-.6 0-.7-.8-.1-.9-.3-1-1.1-.1-.6.1-1.2.4-1.7.6-1 1.7-1.1 2.7-1.2.2 0 .3-.4.1-.5-1.1-.6-2.5 0-3.2.9-.9 1.2-1 2.8-.3 4.1zm3-5.9c.1.4.6.2.5-.1-.2-.6.2-.8.6-1.1.1-.1.1-.4-.1-.4-.7-.2-1.2.8-1 1.6z"
                                    fill="#3a353a" stroke-width="none" opacity="1"></path>
                                <path id="SvgjsPath9201"
                                    d="M140.1 90.6c.1.3.6.4.7 0 .2-1.2 1.5-1.3 2-.2.5.9-.1 1.8-.1 2.7 0 .2.2.3.4.2.3-.2.6-.5.7-.8.9.2 2.2 1.1 2.3 2s-1.3 1.9-2 2.3c-.2.1-.2.4-.1.5v.3c.3.4.5.9.1 1.3-.4.5-1.1.4-1.6.7-.2.2-.2.4 0 .6.6.5 1.6.2 2.2-.3h.1c.6.2 1 .7 1 1.3 0 .5-.4.9-.6 1.3-.1.2.1.4.3.4.2 0 .4-.1.6-.1.9.3.2 1.5-.2 1.9-.5.4-1.1.6-1.6 1-.2.2-.2.5.1.6h.1c-.1.2-.1.4.2.6.4.2.3.8.1 1-.2.4-.6.7-.7 1.1-.1.3.2.6.5.5.1 0 .2-.1.2-.1.9.6 1.2 1.7.7 2.6-.6.9-1.6 1.3-2.6 1-.2-.1-.5.2-.4.5.4.7 1.1.8 1.7.8.1.3 0 .6-.1.8-.1.3-.4.5-.6.7-.1.2 0 .4.2.5.1 0 .2.1.2.1.5.9.6 2.1-.2 2.8-.8.7-1.8.3-2.8.4-.2 0-.3.2-.2.3.5 1 1.5 1.1 2.5.8.4.4-.1.8-.3 1.1-.1.1 0 .3.1.4.3.2.6.2.9 0 .5.7.6 1.7.1 2.4-.6.8-1.4.5-2.1.7-.3.1-.4.4-.2.7.4.4.9.5 1.3.4.1.3-.1.6-.2.8-.2.2-.5.3-.7.5-.1.1-.1.3 0 .5.5.5 1.2.1 1.6-.4.3-.4.3-1 .1-1.6.5-.2.9-.6 1.1-.9.7-1.1.5-2.7-.6-3.6l-.1-.1v-.1c.1-.4-.1-.8-.4-1.1.3-.2.6-.4.7-.6.8-1.1.8-2.8-.1-3.8.2-.2.3-.4.4-.6.1-.5.1-1-.2-1.4.8-.3 1.4-1 1.7-1.6.6-1.2.2-3-1-3.6.6-.8.6-2.1-.2-2.6.9-.2 1.7-1.1 2-1.9.2-.6.3-1.4-.1-2-.1-.2-.3-.3-.5-.3.1-.3.2-.7.2-1.1-.1-.9-.7-1.7-1.6-1.9.2-.6.2-1.4-.3-1.9.5-.1.9-.5 1.3-.9.5-.6 1.1-1.4.9-2.2-.1-.8-1-1.6-1.6-2.1-.5-.4-1-.7-1.6-.7.1-1-.3-2.1-1.1-2.6-1-.4-2.9.4-2.6 2zm-16.9 42.5c-.6-1.2-.2-3.8 1.8-3.1.2.1.2.4 0 .3-.9-.2-1.4.7-1.4 1.5 0 .3 0 .7.2 1 .1.1.1.2.2.2s.1.1.1.1l.2.2c.1.1 0 .2-.1.3-.2 0-.3 0-.5-.1-.7.5-.6 1.7.1 2.4.2.2.3.3.6.4.1 0 .3 0 .3.1.1.1.2.1.2.2.1 0 .1-.1.1-.1.2-.1.4.1.4.3-.1.5-.4.9-.2 1.4.2.6.7.9 1.2 1h.1c.5.1.9.6 1.4.8.7.3 1.4-.1 1.8-.6l.1-.1c-.1-.1-.1-.2-.1-.4 0-.1.2-.2.3-.2.4 0 1.1.5 1.2-.2 0-.1 0-.1.1-.2-.1-.2-.1-.4-.1-.6 0-.3.3-.4.5-.2.8.7 1.4.9 2.3.5.7-.3 1.9-.9 1.8-1.9 0-.1 0-.2.1-.2-.2-.1-.4-.3-.6-.5-.2.3-.4.5-.7.7-.5.3-1.5.4-1.9-.4-.1-.2 0-.4.2-.5.4-.1.8.1 1.2-.1.4-.1.8-.4.9-.9.1-.4.6-.2.6.1v.1c.9.5 1.8 1 2.8.5 1-.6 1.3-1.8 1.4-3-.2-.1-.4-.3-.5-.6-.1-.3 0-.6.3-.6.7.1 1.3.6 2 .2.6-.3.9-1.1.9-1.8 0-.4.6-.5.7-.1.3 1.1-.1 2.3-1 2.8-.4.3-1.1.4-1.7.3.3 1.6-.5 3.2-1.9 3.8-.6.3-1.4.3-2.2.1.5 2.2-2.9 3.7-4.5 2.9-.2.5-.5.8-1 .8-.2 0-.4 0-.6-.1 0 .1 0 .1-.1.2-.5.9-1.4 1.4-2.4 1.2-.6-.1-1.4-.5-1.6-1.1-.8 0-1.5-.6-1.8-1.4-.2-.4-.2-1 0-1.4-.9 0-1.8-1.3-1.9-2.1-.1-.6.2-1.6.7-1.9zm13.3-5.3c.8 2.4 4.6.7 3.4-1.6-.2-.3-.6-.2-.6.1 0 .6-.2 1.4-.9 1.6-.5.2-1.1-.1-1.7-.4-.1-.1-.3.1-.2.3zm-2.6-1.8c.1 1.3 1.8 1.4 2.4.6.3-.3-.2-.8-.5-.5-.5.5-1.1.1-1.6-.3-.1-.1-.3 0-.3.2zm-4.3 8c.7.8 1.9.2 2.3-.4.5-.8.3-2-.3-2.7-.2-.2-.7 0-.5.4.4.6.5 1.3.1 1.8s-.9.4-1.5.5c-.2 0-.3.3-.1.4zm-3.1.8c.3 1.2 1.8 1.3 2.5.7.3-.2-.1-.8-.4-.6-.7.4-1.2 0-1.8-.4-.2-.1-.4.1-.3.3zm12.1-15.7c.2.5.6.6 1 .4.4-.2.7-.8.8-1.3.2-.9-.2-2.5-1.4-2.2-.2.1-.2.3-.1.4.4.2.7.7.7 1.1 0 .3-.1.5-.2.8-.1.1-.1.2-.2.3-.1.1-.1.1 0 .2-.2-.3-.8-.2-.6.3zm1.5-9.2c-.4.2 0 .8.4.6.5-.3.8-.8.6-1.4-.1-.5-.7-1-1.2-.8-.1.1-.2.2 0 .3.4.4.9.9.2 1.3zm.5-6.5c.7-.3 1.5-1 1.3-1.9-.1-.7-1-1.5-1.6-.8-.1.1-.1.4.1.4.4.1.7.4.6.8-.1.4-.5.7-.9.8-.4.2 0 .9.5.7zm-.2-9.7c.3-.1.6-.1.8.2.3.4-.1 1.1-.2 1.5-.2.4.4.8.6.4.4-.8.8-1.8 0-2.5-.4-.4-1.3-.5-1.6.2 0 .1.2.3.4.2zm-2 4.9c.1.2.4 0 .4-.2 0-.5-.2-1.1-.2-1.6 0-.4.1-1.7.8-1.2.2.2.5-.2.3-.4-.6-.6-1.4-.2-1.6.4-.3.9-.3 2.3.3 3zm-2.7 5.5c.3.6.7 1 1.4 1 .3 0 .5-.5.2-.6-.3-.2-.6-.4-.8-.8-.1-.3-.1-.7-.2-1-.1-.1-.2-.2-.3-.1-.6.2-.5 1-.3 1.5zm-3 12.4c.1.2.4.2.5 0 .1-.5.2-1 .4-1.5.1-.3.5-1.6 1-1.5.3.1.6-.4.2-.6-1.7-.9-2.4 2.5-2.1 3.6zm1.8 6.7c.4 0 .3-.5 0-.6-.4-.1-.6-.7-.6-1.1 0-.2-.2-.4-.4-.3-.6.8.1 2 1 2zm-4 1.2c.2.2.5 0 .4-.2-.3-1.4-.4-2.7.4-3.9.2-.3-.3-.7-.5-.4-.9 1.1-1.4 3.1-.3 4.5zm-1.2 1.7.6-.3c.2-.2 0-.6-.2-.4-.2.1-.3.2-.5.4-.1.1 0 .3.1.3zm-3.8.9c.5-.8 1.5-1.6 2.6-1.3.3.1.2.4-.1.5-.8 0-1.5.6-1.8 1.2-.2.3-.3.7-.2 1.1.1.3.2.5.2.8 0 .1-.1.2-.3.2-1.1-.2-.7-1.9-.4-2.5z"
                                    fill="#1b141c" stroke-width="none" opacity="1"></path>
                            </g>
                        </g>
                    </g>
                    <g id="svga-group-mustache-single-move" transform="matrix(1,0,0,1,0,0)">
                        <g id="svga-group-mustache-single">
                            <path id="SvgjsPath9011"
                                d="M100.6 117.5c-5.7.1-19.7-.7-28 6.4-8.3 7.2 10.6 1.1 10.4 1.2s-1.8 3.8 5.4.9c0 0-2.7 4.1 4.7.9 0 0-.5 2.8 4.4-.5 0 0 .1 3 4.1.7.3-.2 1.4 2.1 4.6 0 .2-.1 4.5 2.1 4.4-.1 0 0 3.1 1.8 3.1-.4 0-.3 6 2.8 4.4-.8 0 0 9.6 3.8 5.4-.9 0 0 9.6 3.5 6.5-.9s-19.8-6.7-29.4-6.5z"
                                fill="#2a232b" stroke-width="none" opacity="1"></path>
                            <path id="SvgjsPath9012"
                                d="M81.9 124.9c-1.3.3-2.7.6-4 .9-1.1.2-5.1.6-5-1.7.1-1.5 7.8-4.1 8.8-4.5 6-2 11.8-2 18.1-1.6.2 0 .2-.3.1-.3-4.7-1-9.6-.7-14.2.3-3.9.8-11.1 2.8-13.9 5.9-5.1 5.8 9.2 1.6 10.3 1.3.2.1.1-.3-.2-.3zm6.2.8c-.9.3-1.8.6-2.8.7-.5.1-1.2.3-1.7.1-1.1-.4-.6-1.5-.1-2.1.1-.2-.2-.4-.3-.2-.9.8-1.2 2.3.1 2.8 1.5.6 3.7-.3 4.9-1.1.1 0 0-.2-.1-.2zm36 .5c-1.5 1-4 .1-5.5-.7-.1-.1-.2 0-.2 0-.3-.3-.7-.6-1.1-.7-.1 0-.2.1-.2.2.1.3.7 1 .7 1.3 0 .5-1 .7-1.3.7-.4 0-.8-.1-1.3-.2-.8-.2-1.3-.7-1.9-1.2-.5-.5-1.1-.7-1.6-1.1-.1-.1-.3 0-.2.2.2.4.4.5.8.8.2.1.3.2.4.3 0 .1-.1.2 0 .3.2.5 1.2 1.2-.2 1.4-.4.1-1.2-.2-1.6-.4-.1 0-.2-.1-.2-.1l-.1-.1c-.1-.1-.1-.1-.2-.1-.6-.4-1.1-.9-1.5-1.4-.1-.1-.4 0-.3.2.3.5.8 1 1.2 1.5-.1.1-.3.2-.7.2-.4.1-.9 0-1.3 0-1.3-.1-1.9-1.2-2.7-2.1-.1-.2-.4.1-.3.2.4.5.7 1 1 1.5-.8.4-1.5.7-2.4.6-.9-.1-1.5-.5-2.2-1-.1-.1-.3.1-.2.2l.2.2c-.6.3-1 .8-1.8.7-.8-.1-1.1-.7-1.4-1.3.1-.1.1-.2.2-.2.1-.2-.1-.4-.3-.3-1 .7-3.1 2.7-4.4 1.4l-.1-.1c1.3-.7 2.5-1.6 3.6-2.6.1-.1 0-.2-.1-.2-1.2.7-2.4 1.5-3.6 2.2-1 .5-5.4 2.4-4.2-.6.1-.2-.2-.3-.3-.2-1.2 1.4-.6 2.9 1.3 2.6 1.2-.2 2.2-.6 3.3-1.2-.1.1-.1.2 0 .3 1 1.3 3.2.3 4.4-.7.1.7.9 1.4 1.6 1.5.8.2 2-.1 2.5-.9.6.5 1.4.8 2.1.9.9.1 2.2 0 2.6-.9.4.4.8.6 1.4.7.9.1 2.1.4 2.8-.4.7.5 1.4.7 2.3.6.8-.1 1.2-.6 1.2-1.2.9.6 2 .8 3 .8.7 0 1.6-.2 1.8-1 0-.2 0-.5-.1-.7 1.5.8 5.1 2.4 5.8.4-.2-.2-.5-.4-.7-.3zm5.2-3.3c-1.7-1.1-3.7-1.9-5.8-1.8-.1 0-.1.2 0 .2 1.3.3 2.7.5 3.9 1.2.7.4 3.6 2 2.4 3-.5.4-2.6 0-2.9-.1-.7-.1-1.3-.3-2-.5-1.3-.4-2.6-.8-3.9-1.3-.1-.1-.2.2-.1.2 2.1 1.1 4.2 2.1 6.5 2.4.9.1 3.2.4 3.7-.8.5-1-1.1-2-1.8-2.5zm-25.7-5c-.1.1-.1.2 0 .3 1.6 2 3 4.2 4.6 6.2.1.2.3 0 .3-.2-1.1-2.3-2.8-4.4-4.5-6.3 1.3.2 2.6.3 3.9.5 3.6 1.2 6.8 2.6 9.8 4.9.2.1.4-.1.2-.2-2.1-2.3-4.8-3.5-7.6-4.4 2.6.3 5.2.7 7.8.9 1.5.5 2.8 1.3 4.1 2.1.2.1.4-.1.2-.3-.7-.7-1.6-1.2-2.6-1.6.4 0 .9.1 1.3.1.2 0 .3-.3.1-.4-5.7-1.6-12.6-2.2-18.5-2-.1 0-.1.1 0 .1.2.2.6.3.9.3zM91 119.2c.1 0 .1-.2 0-.2-3.7.4-7.4 1.6-10.6 3.2-.2.1-.1.3.1.3 3.5-1.3 6.9-2.3 10.5-3.3zm5.1-.5c-3.4 1-7.1 2.9-9.6 5.5-.2.2.1.5.2.3 3.1-2 6.1-3.9 9.5-5.5.3-.1.1-.4-.1-.3zm7.2 1.9c1 1.1 1.7 2.3 2.5 3.4.1.2.4.1.3-.1-.4-1.4-1.4-2.7-2.6-3.6-.1-.2-.4.1-.2.3zm5.1-.4c-.2-.1-.3.2-.1.3 3.1 1.4 5.6 3.2 8.2 5.3.2.1.3-.1.2-.2-2.1-2.5-5.2-4.4-8.3-5.4zm-32.8 3.1c-.5.4-1.1 1.2-.3 1.6.8.4 2.3.3 3.2 0 .2-.1.2-.4-.1-.4-.6 0-1.1.1-1.7 0-.7-.1-1.8-.1-.9-1 .2 0 0-.3-.2-.2zm4.5 1.7c2.1-1.2 4.3-2.1 6.5-3.1.2-.1.1-.3-.1-.3-2.3.6-4.6 1.7-6.6 3-.2.2 0 .6.2.4zm10.4.5c-.1-.2-.4 0-.3.2.3.6 1.2.9 1.7.4.1-.1 0-.3-.1-.2-.5.1-1 .1-1.3-.4zm8.9-5.7c0 1.7-.2 3.3-.2 5 0 .2.3.2.3 0 .4-1.6.3-3.4.3-5 0-.2-.4-.2-.4 0zm-4.4 2.6c1.2-1.3 2.4-2.6 3.8-3.8.2-.2-.1-.5-.3-.3-1.5 1.1-2.7 2.4-3.7 4 0 .1.1.2.2.1zm7.2.9c.1-1.7-.2-3.4-.3-5.1 0-.3-.5-.3-.5 0 .1 1.7.1 3.4.4 5.1 0 .3.4.3.4 0z"
                                fill="#1b141c" stroke-width="none" opacity="1"></path>
                        </g>
                    </g>
                    <g id="svga-group-nose-single-move" transform="matrix(1,0,0,1,0,0)">
                        <g id="svga-group-nose-single">
                            <path id="SvgjsPath6064"
                                d="M105.06 106.65c.56.92 2.64 3.61 3.09 4.9.45 1.29-.13 3.22-1.48 3.61s-3.61-.39-3.93-.19c-.32.19-1.87 2.06-2.58 1.93-.71-.13-2.64-2.13-3.03-2.13-.39 0-2.13.45-2.97.45-.84 0-2.9-.71-2.64-2.51.26-1.81 2.45-5.54 2.9-6.06.45-.52 1.48-2.32 1.74-3.42s.58-7.03.71-8.38c.13-1.35 1.35-2.97 2.58-3.09 1.23-.13 3.35.77 3.55 2.9.19 2.13.58 6.38.77 8.12.19 1.74.58 2.71 1.29 3.87z"
                                fill="#f4baa3" stroke-width="none" opacity="1" transform="translate(0 1)" stroke="none">
                            </path>
                            <path id="SvgjsPath6065"
                                d="M97.62 85.76c-.84 3.5-.96 7.24-1.34 10.81-.4 3.83-1.14 7.78-1.09 11.63 0 .31.48.39.55.07.78-3.52.88-7.26 1.24-10.84.39-3.82 1.1-7.79.98-11.63 0-.18-.29-.24-.34-.04z"
                                fill="#c66c49" stroke-width="none" opacity="1" transform="translate(0 1)" stroke="none">
                            </path>
                            <path id="SvgjsPath6066"
                                d="M94.46 106.19c-1.03 1.37-1.9 2.87-2.65 4.41-.49 1-1.09 2.17-.77 3.32.53 1.89 2.93 2.49 4.5 1.58.47-.27.26-.99-.27-1-.92-.01-1.98.28-2.72-.5-.88-.94-.01-2.63.38-3.57.58-1.39 1.28-2.72 1.83-4.12.07-.19-.2-.26-.3-.12z"
                                fill="#c66c49" stroke-width="none" opacity="1" transform="translate(0 1)" stroke="none">
                            </path>
                            <path id="SvgjsPath6067"
                                d="M94.31 113.98c2.84-.21 3.38 3.37 6.07 3.45 2.31.07 2.5-3.41 4.69-3.3.26.01.34-.35.13-.47-2.49-1.47-2.95 2.86-5.24 2.59-1.36-.16-2.32-2.16-3.54-2.73-.83-.39-1.43-.36-2.23.02-.22.09-.11.46.12.44z"
                                fill="#c66c49" stroke-width="none" opacity="1" transform="translate(0 1)" stroke="none">
                            </path>
                            <path id="SvgjsPath6068"
                                d="M104.29 115.6c1.87.42 4.05-.16 4.49-2.24.22-1.04-.13-2.07-.67-2.95-.89-1.44-2.03-2.66-2.87-4.15-.14-.25-.49-.12-.51.14-.11 1.67 1.13 2.83 2.02 4.12.82 1.19 1.53 2.83.15 4-.63.54-1.83.44-2.6.59-.26.04-.25.43-.01.49z"
                                fill="#c66c49" stroke-width="none" opacity="1" transform="translate(0 1)" stroke="none">
                            </path>
                            <path id="SvgjsPath6069"
                                d="M102.45 109.98c-.41-.74-1.47-.85-2.06-.26-.05.05-.24.29-.3.36-.07.09-.2.26-.23.29-.07.1-.12.21-.18.32l-.12.28c0-.01-.01.01-.03.05-.06.06-.12.13-.18.2-.18.19-.36.38-.5.6-.42.67-.08 1.42.48 1.84.87.65 2.13.13 2.74-.61.76-.89.96-2.03.38-3.07z"
                                fill="#fcc9b5" stroke-width="none" opacity="1" transform="translate(0 1)" stroke="none">
                            </path>
                        </g>
                    </g>
                    <g id="svga-group-hair-front">
                        <path id="SvgjsPath8428"
                            d="M170.6 74c0-1.3-.6-2.6-1.4-3.5-.1-.1-.2-.2-.3-.2.1-.4.1-.8.1-1.1-.1-2-.8-4.1-2.2-5.5-.5-.6-1.2-1-2-1.3 0-.5-.1-1-.1-1.5 0-1-.2-2-.7-2.8.1-.2.3-.4.4-.6l1.1-1.5c.4-.7.7-1.5.7-2.3.2-.8.1-1.6-.1-2.5l-.6-1.5c-.4-.7-.9-1.3-1.6-1.7-.6-.5-1.4-.9-2.2-1.1 0-.1-.1-.2-.1-.2-.3-.5-.6-.9-.9-1.2.1-.2.1-.3.1-.5.2-.2.4-.3.6-.6 1-1 1.6-2.2 2.1-3.5.1-.5.1-1 .2-1.5 0-.8-.1-1.5-.5-2.2-.5-1.1-1.3-2.2-2.3-2.7-.6-.3-1.2-.5-1.8-.7-.1-.4-.3-.9-.5-1.2-.7-1.1-1.7-2-3-2.3-.4-.1-.8-.1-1.1-.1.1-.6.1-1.2.2-1.8.2-1.9-1.2-3.9-2.7-4.8-.9-.5-1.8-.8-2.8-.8-.5 0-.9.1-1.4.2-.1-.2-.2-.5-.3-.7-.4-.7-.9-1.3-1.6-1.7-1-.8-2.4-1.4-3.7-1.3-.2 0-.4 0-.7.1.2-.9.2-1.8-.1-2.7-.4-1.2-1-2.2-2-2.9-1-.7-2.2-1.3-3.4-1.2-.5.1-1 .1-1.5.2-1 .3-1.8.8-2.5 1.5-.1.1-.2.2-.4.3-.1 0-.2-.1-.3-.1-.6-1-1.5-1.8-2.5-2.2-1.3-.6-2.6-.6-3.9 0-.2.1-.3.2-.5.3h-.9v-.1c-.1-.4-.2-.8-.3-1.1-.4-1.6-1.6-2.9-3.2-3.6-.7-1.1-1.6-2-2.7-2.7-1.2-.7-2.5-1-3.8-1-.4 0-.8 0-1.1.1-1 .1-2 .4-2.9.9 0 0-.1 0-.1.1-.4-.3-.9-.5-1.4-.6-.9-.3-1.8-.4-2.8-.3-.8 0-1.5.3-2.2.7-.2.1-.3.2-.4.3-.1 0-.1.1-.2.1h-.1c-.3.2-.7.5-1 .8-.8.7-1.6 1.5-2.1 2.4-.2.3-.3.6-.5 1-.6-.1-1.2 0-1.8.1-.2-.4-.4-.7-.7-1-.2-.3-.4-.6-.7-.9-.3-.5-.6-.9-.9-1.3-1-1-2.4-1.6-3.8-1.8-.6-.2-1.2-.2-1.8 0-.6 0-1.2.2-1.7.4-.6.3-1.2.6-1.7 1-.4-.1-.8 0-1.2.1-.6 0-1.2.2-1.7.5-.6.2-1.1.4-1.5.9-.7.5-1.3 1.1-1.7 1.9-.3.6-.5 1.1-.8 1.7-2.6-.2-5.2 1-6.8 3.2-.2.1-.5.2-.7.3-.7-.4-1.4-.6-2.1-.7-2.6-1.4-6.1-.9-8.2 1.1-.6-.2-1.2-.3-1.9-.3-1.3 0-2.5.3-3.6 1-2.1 1.3-3.5 3.6-3.5 6.1v.5c-1-.2-2.1-.2-3.1.1-3.8 1-5.9 4.5-5.8 8.2-1.8.7-3.1 2.1-3.6 4-.3 1-.4 2.1-.5 3.1 0 .4.1.8.1 1.2.1 1 .4 2 .9 3l.3.4c-.7-.1-1.5 0-2.2.2-.7.2-1.3.5-1.9 1-.3.2-.5.4-.8.6-.8.5-1.4 1.2-1.9 2-.8 1.8-1.1 2.5-1.2 4.5-.1 1.2.4 2.9 1 4 .2.4.5.7.7 1-.3.2-.5.3-.8.5.1-.1.2-.2.3-.2-.1.1-.2.1-.2.2-.3.2-.5.4-.7.6-.1.1-.2.1-.2.2.1 0 .1-.1.2-.2-1.1 1-1.8 2.1-2 3.6-.2.8-.1 1.5.1 2.3.3 1 .8 1.8 1.5 2.5-.2.1-.4.2-.6.2-.5.2-1 .4-1.5.8-.8.6-1.5 1.5-1.7 2.5-.2 1.1-.3 1.9 0 3.1.5 1.8 1.8 3.1 3.4 3.8.3.1.5.2.8.3 0 .1 0 .2.1.2.4 1.1.8 2 1.5 2.8-.3.4-.5.8-.7 1.2-.6.4-1.3 1.1-1.6 1.8-.7 1.5-.9 2.9-.3 4.5.6 1.4 1.8 2.6 3.3 2.9.9.2 1.8.3 2.7.1.1.5.3 1 .6 1.5.5.9 1.3 1.6 2.2 2.1.1.5.3 1.1.6 1.5.7 1.1 2 2.2 3.3 2.5 1.4.3 3 .2 4.2-.6 1.2-.8 2.2-1.9 2.5-3.3.2-.7.2-1.3.2-1.9.2 0 .5-.1.7-.1 1-.3 1.8-.7 2.5-1.4.1 2.6 2.1 4.8 4.8 4.8 1.2 0 2.5-.5 3.4-1.4.8-.8 1.5-2.2 1.4-3.4-.1-1.6-.9-3.1-2.1-4v-.2c0-.1.1-.2.1-.2.6-.5 1.2-1.1 1.5-1.8.8-1.4 1.1-3.2.6-4.8l-.6-1.5c-.3-.6-.8-1.1-1.3-1.5 1.3-.8 2.2-1.9 2.8-3.3.6-1.4.7-2.8.5-4.2-.2-1.5-.8-2.8-1.7-4-.1-.2-.2-.3-.3-.4.7.4 1.4.6 2.3.6 1.3 0 2.6-.5 3.5-1.5l.2-.2c.6.6 1.4 1 2.5 1 2.6 0 3.8-2.1 3.6-4.1 0 0 0-.1.1-.1 1.3.1 2.5-.3 3.4-1.2 1.1-1.1 1.5-2.7 1.1-4.2-.2-.6-.4-1-.7-1.4.2-.6.4-1.2.5-1.8.1-.5.1-.9.1-1.4.2 0 .3-.1.5-.1.4 1.7 1.5 3.1 2.9 4 1.3.8 2.9.9 4.3.4.5 1.6 1.9 2.9 4.1 2.6 3.1-.3 5.1-2.1 5.7-4.3.4-.7.7-1.4.6-2.3v-.1c1.5 1.1 3.5 1.6 5.6 1.3.2.3.5.6.8.8 1.1.8 2.7 1 3.9.5 0 1.9.9 3.6 2.6 4.7.4.3.9.5 1.4.7.4.1.8.2 1.2.2.4 0 .8 0 1.2-.2.6-.1 1.2-.3 1.7-.6.6.8 1.5 1.2 2.5 1.3.3.2.6.3.9.4.7.2 1.5.2 2.2 0 .8-.2 1.4-.7 2-1.2.4.1.9.1 1.3 0-.2.9-.1 1.8.4 2.7.9 1.5 2.7 2.1 4.2 1.7.3.4.7.8 1.1 1 .8.5 1.9.7 2.8.6.1.5.3 1.1.6 1.6.5.9 1.1 1.7 1.9 2.3-.5.4-1 .8-1.3 1.4v.1c-.2.4-.3.8-.5 1.2-.2.7-.2 1.3-.1 1.9-.2.5-.2 1.1-.3 1.6 0 1.7.9 3.1 2.3 4 .4.3.8.4 1.2.6v.2c0 .4.1.8.1 1.1-.3 1.2-.1 2.4.5 3.5-.5.4-.8.9-1.1 1.4-.8 1-1.1 2.4-.9 3.7.2 1.4 1 3 2.4 3.6 1.1.5 1.8.8 3 .8.8 0 1.6-.2 2.4-.6.3.6.8 1.2 1.4 1.6.4.3.8.5 1.2.7.1.5.2 1.1.5 1.5.2.7.6 1.3 1.2 1.8 1 1 2.6 1.7 4 1.7 1.1-.1 2.3-.3 3.2-1 1 .2 2 .3 2.9 0 1-.3 1.9-.8 2.7-1.6.9-.8 1.3-1.8 1.6-3v.2c0-.1.1-.2.1-.4.3-.8.4-1.7.4-2.6.5-.1 1-.3 1.5-.6.9-.5 1.4-1 1.9-1.7s1-1.4 1.2-2.3c.3-1.1.3-2.3 0-3.4-.2-.8-.6-1.6-1.1-2.2-.4-.6-.9-1.1-1.5-1.5 2.8-.2 5.3-2.3 5.3-5.2z"
                            fill="#2a232b" stroke-width="none" opacity="1" stroke="none"></path>
                        <path id="SvgjsPath8429"
                            d="M51.1 41.9c-2.1-.5-3.1-1.8-3.5-3.9-.3-1.8-.2-5.5 2.5-5.3.5 0 .5-.7 0-.7-5.4-.6-4.7 11.2.8 10.7.5-.1.7-.7.2-.8zm5.8 7.7c-1.8 1.5-4.5 1.3-5.7-.9-1.2-2.1-.1-4.6 1.8-5.9.3-.2 0-.6-.3-.4-2.8 1.4-4.1 4.7-2.1 7.4 1.6 2.2 5 2.4 6.6.1.3-.3-.1-.5-.3-.3zM73.7 35c-.1-.2-.4-.2-.4 0 .3 3-.9 6.2-4 7.1-3.7 1-7.1-1.9-6.5-5.7.1-.5-.7-.7-.8-.2-.7 3.9 2.4 7.5 6.5 7 4-.5 6.4-4.5 5.2-8.2zm-3.1 16c-.1-.3-.5-.3-.6 0-.2.9-.3 1.9-1.2 2.4-.9.5-2 .3-2.5-.6-.2-.4-.9 0-.7.4 1.5 2.7 5.9.7 5-2.2zM42.5 61.4c-3.7-2.8-4.1-7.2-1.1-10.6.4-.5-.2-1.2-.7-.7-3.6 3.5-3.5 8.4-.2 11.6-2.3.9-3.8 3.7-4.2 6.1-.5 3.7 1.4 6.6 4.6 8.1.3.2.6-.3.3-.5-2.6-2-3.7-4.1-3.3-7.4.3-2 1.4-5.4 4.2-5.2.8 0 .9-1 .4-1.4zm8.7 25.1c-1.8 1.1-3.9 2-6.1 1.4-2.3-.6-3.8-2.7-3.5-5 0-.5-.8-.6-.8-.1-1.1 6.3 7.1 8.2 10.8 4.2.2-.3-.1-.7-.4-.5zm8.7-24c-.4 0-.4.5-.1.6 2.6 1 4.4 2.9 4.5 5.8.1 2.7-1.1 5.5-3.9 6.2-.4.1-.3.8.1.8 7-.2 6.3-13.1-.6-13.4zM35 87.9c-1.9-.4-3.6-1.7-3.5-3.9.1-1.9 1.6-3 2.9-4.1.3-.2 0-.6-.3-.6-2.4.4-4.1 3.3-3.8 5.6.3 2.2 2.4 4.3 4.7 3.8.4 0 .4-.7 0-.8zm.7-31.8c-2.5.1-4.1.4-5 3.1-.7 2.1-.3 4.2.9 6-4.4 1.1-3.5 7.6.8 9 .4.1.7-.5.3-.7-.8-.3-1.4-.8-1.8-1.5-1.6-1.6-1-3.5 1.9-5.7.6 0 .8-.7.5-1.1-.9-1-1.4-2.2-1.5-3.6-.2-1.4.3-2.3 1.7-2.9 1.5-1.3 1.2-1.1 2.5-1.7.3-.2.1-.9-.3-.9zm9.7-24.8c-2.6-1.2-5.3.6-6.2 3.1-1.2 3.3.3 7.1 2.6 9.6.4.4.9-.1.7-.6-1-2.2-2.5-4.2-2.4-6.7.1-3 2.2-4.9 5.1-4.5.4-.1.6-.7.2-.9zm52.4 17.8c-.3-1.7-1.6-3-3.4-2.7-.3 0-.3.5 0 .6 3.2.7 2.2 4.4.9 6.4-.9 1.3-2 1.8-3.6 1.4-1.4-.4-3.5-1.6-3.1-3.4.1-.2-.2-.4-.4-.4.1-.3-.3-.6-.6-.4-.7.5-1.1 1.2-1.8 1.7-1.1.7-2.2.2-3-.5-1.6-1.2-2.7-3.3-2.1-5.3.2-.5-.6-.7-.8-.2-1 2.6.4 5.3 2.6 6.8 1.9 1.3 4.2.9 5.3-1-.3 1.5.9 2.7 2.3 3.5 1.8 1 3.6 1.3 5.3-.2 1.5-1.6 2.8-4.2 2.4-6.3zm19.3 5.1c-.8 1.7-2.4 2.9-4.4 2.3-1.9-.6-3.7-3-3.5-5 .1-.4-.6-.5-.8-.2-1.3 2.4 1.7 5.7 3.9 6.5 2.2.7 5.7-.5 5.6-3.3.1-.5-.6-.7-.8-.3zm-20.3-20c-.1-.5-.6-.6-.9-.2-.5.8-.9 1.6-2 1.8-.8.2-3-.7-2.5-1.8.2-.3-.3-.8-.6-.5-.3.4-.4.8-.4 1.2-.2-.1-.3-.1-.6 0-2.3 1-5.1 1-6.5-1.5-1.6-2.9-.2-6.6 2.8-7.8.6-.3.4-1.3-.3-1.1-3.7 1.3-5.8 5.8-3.9 9.4 1.5 2.9 6.2 4.6 8.6 1.9l.1-.1c.4.8 1.5 1.5 2.4 1.7 1.7.2 4-1.1 3.8-3zM83.3 7.1c.2-.1.2-.6-.1-.5-2.3.2-3.9 2.6-3.8 4.8-1.1-.5-2.3-.6-3.4-.5-2.5.3-4.2 2.2-5 4.5-1.6-1.6-4.1-2.5-6.2-2.3-1.6.1-3.4.7-4.2 2.1-.5.9-.7 2.1.2 2.7.2.1.5.1.6-.1l.1-.1c.3-.3 0-.8-.3-.8.2-1.1.9-1.9 2.1-2.2.6-.2 1.2-.3 1.8-.3 1 0 2.1.2 3 .7 1.9 1 2.6 2.6 3.8 4.3.3.4 1 .3 1-.3-.1-1.2-.6-2.2-1.4-3.1l.1-.1c1.1-1.8 2.3-3.5 4.6-3.8 2.1-.2 3.5.8 4.9 2.2.4.5 1.1-.1.8-.6-.4-.8-1-1.4-1.8-1.9.3-2.2 1.4-3.5 3.2-4.7zm30.4 9.7c-1.6-2.1-4-3.7-6.8-2.8-2.8.9-3.7 3.9-2 6.2.3.5 1.1 0 .8-.5-.2-4.4 1.5-5.8 5-4.1 1 .7 1.9 1.5 2.4 2.6.3.5.9.4 1.2 0 2-2.9 6.8-2.9 9-.5 1.7 1.8 1.8 3.7 1.1 5.9-.2.7.9 1.2 1.2.5 3.8-7.3-7.2-12.8-11.9-7.3zm16.9 27c-2 2.6-2.4 1.3-5.3.1-.2-.1-.3-.5-.6-.4-.5.1-.5.1-1 .3-.4.3-.9.6-1.3.9-2.1 1.2-3.5.4-4.3-2.4.2-.5-.6-.8-.8-.2-.1.2-.2.5-.2.7h-.1c-1.7.3-3.3.3-4.4-1.3-.8-1.1-1-2.7-.7-3.9.7-2.6 3.1-4.4 5.8-4.5.6 0 .6-.9 0-1-3.8-.1-7.2 2.8-7.3 6.7 0 3.1 3.4 7.1 6.6 5.1.2.9.7 1.7 1.6 2.1 2.1 1.2 3.4-.3 5.3-.9.1 0 .2-.1.2-.1l.4.4c.3.2.5.5.8.7.7.6 1.7.9 2.6.9 1.7-.1 3.1-1.2 3.5-2.8.3-.6-.4-.8-.8-.4zM142.8 62c-1.9 0-3.9-.2-4.7-2.3-.7-2 .5-5.2 3.1-4.5.4.1.7-.5.3-.7-2.9-1.3-5.2 1.9-4.9 4.6.3 2.8 3.7 5.5 6.4 3.8.5-.2.3-.8-.2-.9zm-2.6 12.9c-1.6-.3-3.2-.4-4.2-2.1-1.5-2.5.5-4.9 2.9-5.5.7-.2.6-1.4-.2-1.3-3.1.3-4.2-2.6-3.4-5.2.2-.6-.7-.8-.9-.2-1 2.5-.2 5.3 1.9 6.3-4.2 2.9-1.4 11.1 4 8.8.4-.1.3-.7-.1-.8zm.7 8c-.9-.5-1.8-.7-2.4-1.7-.7-1.1-.5-2.4.2-3.5.2-.4-.3-.8-.6-.5-.9 1.2-1.3 2.7-.8 4.2.5 1.2 1.9 2.6 3.3 2.4.5-.1.8-.6.3-.9zm23.7-4.5c-1.7 1.3-4.1 4-6.4 2.2-.5-.4-1.4-.2-1.4.6-.1 1.9-1.8 2.7-3.5 2.5-1.9-.2-3-1.5-3-3.6 0-.5-.8-.5-.8 0-.2 2.4 1.1 4.7 3.6 5.1 2.4.4 3.9-1.1 4.9-2.9 2.8 1.4 5.8-.7 7.2-3.4.2-.2-.2-.7-.6-.5zm-.7-20.3c-.8-2.2-3.4-2.9-5.4-2.4-.4.1-.4.7 0 .8 1.6.4 3.4 0 4.3 1.7.7 1.4.8 4.4-.6 5.3-.4.3 0 1 .4.7 1.9-1.1 2-4.2 1.3-6.1zm-12.4-21.3c.8-1.8.4-3.9-1.3-5.2-2.3-1.8-5.8-1.5-8.1.1-.5.4-.2 1.3.5 1.1 1.2-.3 2.2-.8 3.5-.9 2.1-.1 6.6 1.5 3.9 5-.4.6 0 1.3.7 1.2 4.9-.7 4 6.9 0 7.8-.4.1-.3.8.1.8 5.2-.7 5.8-9 .7-9.9zm-10.4-20.2c-.5-1.6-1.7-3-3.2-3.7-2.9-1.4-6.5.6-6.2 4 .1.5.8.5.8 0 .1-3.2 3.9-3.8 5.9-1.9.9.9 1.4 2.1 1.5 3.4.1 1-.2 1.9.1 2.9.1.3.6.5.8.2 1.1-1.2.8-3.4.3-4.9zm-47.9-6.4c-3.1 0-5.6 3.1-6.1 6-.1.6.6.9 1 .4 1-1.4 1.5-3.2 3-4.2 1.8-1.2 5.3-.6 4.4 2.2-.2.5.7.9.9.4 1.1-2.4-.7-4.8-3.2-4.8z"
                            fill="#0c080c" stroke-width="none" opacity="1" stroke="none"></path>
                        <path id="SvgjsPath8430"
                            d="M72.1 34.7c0-.4-.6-.7-.8-.2-.7 1.5-2 3.2-3.9 2.8-1.9-.4-2.9-2.8-2.1-4.5.2-.5-.5-1-.8-.5-1.3 2.2-.2 5.4 2.3 6.2 2.2.6 5.5-1.2 5.3-3.8zm-7.2-4.3c-.8.5-1.8-.2-2-1-.2-1 .2-1.9.3-2.8 0-.2-.4-.4-.5-.2-.9 1.1-1.3 3-.3 4.3.7 1 2.1 1.3 3.1.4.2-.4-.2-1-.6-.7zm82.2-3.9c0-1.3-.2-2.5-1.6-3.1-1.6-.7-3.1.5-4.3 1.5-.3.2.1.8.4.5.5-.4 1.4-1.2 2-1.2.8.3 1.5.6 2.3 1 .1.7.1 1.4-.1 2.1-.1.6.4 1 .9.7 2.6-1.3 5.2.5 5.1 3.4-.1.9 1.3.9 1.3 0 .3-3.6-2.8-5.9-6-4.9zm-1.3 7.5c-1.8-1.2-4-.5-5.2 1.2-.2.3.3.7.5.4 1-1.2 2.8-1.7 4.1-.7 1.7 1.2 1.2 3.1.8 4.8-.1.4.4.5.6.2 1.4-1.9 1.3-4.6-.8-5.9zm.5 9.9c-.4 0-.5.7-.1.7 2.3.3 3.8 2.9 3.1 5.1-.8 2.2-2.9 2.8-4.9 3.3-.4.1-.4.8 0 .9 2.8.5 5.9-1.8 6.2-4.7.3-2.7-1.6-5.1-4.3-5.3zm8.9 5.5c-.5-.2-1 .4-.6.8 2.6 2.7-.2 5.5-2.7 6.8-.6.3-.5 1.4.2 1.6 3.2.7-.2 10.9-4.8 6.2-.4-.4-.9.2-.6.6 4 4.9 10.7-3.2 7-7.5 2.9-2 5.9-6.4 1.5-8.5zM132 38.2c-1.5 2.2-5.5 5.2-6.4.7-.1-.5-.7-.7-1.1-.4-2.5 1.7-6.6-2.7-3.4-4.5.3-.2.1-.8-.3-.6-4.5 1.6-.6 7.3 3.3 6.7.3 1.7 1.8 2.9 3.6 3 2.6.2 4.6-2.1 5.1-4.5.2-.5-.5-.8-.8-.4zm-20.2-17c-2.7-3.2-8.7-2.6-8.3 2.5.1.6.8.7 1 .1.7-3 2.9-3.4 6.8-.9.2.5 1.2.7 1.3 0 .8-5.1 8-2.5 8.7 1.1.1.7 1.1.4 1-.3-.7-4.6-8.4-6.8-10.5-2.5zm7.4-9.5c-1.8-2.8-5-5.6-8.1-3.5-1.8-2.7-6.6-.3-7.8 2-.2.4.3.9.7.5.8-.9 5.2-4.4 6.3-1.4.2.5.7.6 1.1.3l3.1-.9c.8.2 1.4.6 1.9 1.1.8.7 1.4 1.4 2.1 2.3.3.5 1 .1.7-.4zM101 30.3c-.7.4-1.4.7-2.1 1-.2.1-5.5 1.3-3.7-1.3.3-.5-.3-.9-.7-.7l-.1.1h-.1c-3.2 2.5-7-.8-5.8-4.4.2-.5-.5-.6-.7-.2-1.7 4.2 2.2 7.5 5.8 6.1 0 .7.4 1.4 1.2 1.8 2.2 1.2 5.1-.2 6.5-1.9.4-.2 0-.7-.3-.5zm3.8 15.8c-.9.2-1.6.5-2.5.1-.9-.4-1.5-1.3-1.6-2.3 0-.5-.8-.5-.8 0 0 1.3.6 2.6 1.8 3.2 1 .5 2.7.7 3.6-.3.3-.3 0-.8-.5-.7zm51.7 46.3c0-1.2-1.8-.6-1.2.3.5.8-.2 2-.9 2.4-.7.5-1.7.5-2.5.3-1.7-.5-2.6-2.1-3.1-3.7-.1-.4-.9-.4-.8.1.3 2.5 2 4.9 4.8 4.9 1.1 0 2.2-.4 2.9-1.2.8-.9.8-1.9.8-3.1zm4.6-21.5c-1.1-1.3-3-1.3-4 .1-.2.3.3.8.6.4 1-1.3 2.7-.5 3.1.9.4 1.4-.4 2.4-.9 3.6-.2.4.5.8.8.4 1.3-1.3 1.6-3.9.4-5.4zM44 70.9c-1.4-.3-2.8-.7-3.3-2.2-.5-1.6.4-3.2 1.8-3.9.4-.2.1-1-.3-.8-1.9.7-3.2 2.7-2.7 4.8.4 1.9 2.5 3.6 4.5 3 .4-.1.5-.8 0-.9zm12-8.3c-.8-.8-1.8.7-.9 1.1C58 65 60.9 70.4 58 73c-.4.4.2 1 .6.6 3.9-3.3-.1-8.4-2.6-11zm18-7.9c-.5-.5-1.4.2-1 .8 1.7 2.6-1.6 4.2-3.6 2.6-.4-.3-1.2-.2-1.1.5.3 3.7-3.8 3.7-6 2.3-.4-.2-.9.3-.5.7 2.7 2.3 7.1 1.7 7.7-1.8 3.2 1.5 7.4-1.9 4.5-5.1zm3.8-10.1c-.6-2-2.7-1.7-4.1-1-.3.2-.1.7.2.6.6-.2 1.3-.6 2-.3.7.2 1 1 .8 1.7-.2 1.2-1.4 1.6-1.9 2.6-.2.3.1.8.5.7 1.6-.5 2.9-2.7 2.5-4.3zm50.7 6.6c-.8.3-1.6.8-2.5 1-.9.2-3.3.5-3-1.2.1-.6-.8-.9-1-.3-.4 1.5.7 2.7 2.2 3 1.7.3 3.7-.4 4.7-1.8.3-.4 0-.8-.4-.7zm7.3-27.7c-1.5-.7-3.3.1-3.5 1.8-.1.5.7.6.8.1.3-1.6 2.1-1.3 2.8-.2.7 1.1.3 2.2.5 3.4.1.5.8.5 1 .1.9-1.7.1-4.3-1.6-5.2zm4.5 22.5c-.6.6-.9 1.4-1.6 1.9-.8.5-2.4.1-2.1-1.1.2-.6-.8-.9-1-.3-.5 1.5.9 2.9 2.3 2.9 1.5 0 3.2-1.5 3.2-3.1.1-.4-.5-.6-.8-.3zm7.5 39.3c-1 .1-1.9.4-2.8-.2-.9-.6-1.2-1.7-1-2.7.1-.6-.8-.9-1-.3-.4 1.4 0 2.9 1.1 3.8 1 .9 3 1.2 4.1.2.2-.2.1-.9-.4-.8zM82 16.6c-.6-2-3.2-2.8-5.1-2.1-2 .8-2.9 3-2.3 5 .2.6 1.1.4.9-.3-.3-1.5.5-3.3 2.1-3.7 1.5-.4 2.7.5 3.7 1.5.3.3.8 0 .7-.4z"
                            fill="#4a4a4a" stroke-width="none" opacity="1" stroke="none"></path>
                    </g>
                    <g id="svga-group-glasses-single-move" transform="matrix(1,0,0,1,0,0)">
                        <g id="svga-group-glasses-single"></g>
                    </g>
                </g>
            </g>
        </g>
        <rect id="svga-credit-rect" width="200" height="15" x="0" y="185" fill="#ecf0f1" opacity="0.5"
            style="display: none;"></rect><text id="svga-credit-text"
            font-family="Avenir Next, Roboto, Helvetica, Arial, sans-serif" font-size="10px" text-anchor="start"
            font-weight="400" size="10px" anchor="start" weight="400" fill="#333333" x="33.311859130859375"
            y="182.60824728012085" style="display: none;">
            <tspan id="SvgjsTspan5857" dy="13" x="33.311859130859375">Created on AvatarMaker.com</tspan>
        </text>
    </g>
    <defs id="SvgjsDefs5804"></defs>
</svg>